<svg width="16" height="16" viewBox="0 0 16 16" fill="none" xmlns="http://www.w3.org/2000/svg">
<path d="M3.0013 13.9987C3.73767 13.9987 4.33464 13.4017 4.33464 12.6654C4.33464 11.929 3.73767 11.332 3.0013 11.332C2.26492 11.332 1.66797 11.929 1.66797 12.6654C1.66797 13.4017 2.26492 13.9987 3.0013 13.9987Z" stroke="#67809A" stroke-width="1.33333" stroke-linejoin="round"/>
<path d="M3.0013 4.66667C3.73767 4.66667 4.33464 4.06973 4.33464 3.33333C4.33464 2.59695 3.73767 2 3.0013 2C2.26492 2 1.66797 2.59695 1.66797 3.33333C1.66797 4.06973 2.26492 4.66667 3.0013 4.66667Z" stroke="#67809A" stroke-width="1.33333" stroke-linejoin="round"/>
<path d="M3.0013 9.33464C3.73767 9.33464 4.33464 8.7377 4.33464 8.0013C4.33464 7.2649 3.73767 6.66797 3.0013 6.66797C2.26492 6.66797 1.66797 7.2649 1.66797 8.0013C1.66797 8.7377 2.26492 9.33464 3.0013 9.33464Z" stroke="#67809A" stroke-width="1.33333" stroke-linejoin="round"/>
<path d="M7 8H14.3333" stroke="#67809A" stroke-width="1.33333" stroke-linecap="round" stroke-linejoin="round"/>
<path d="M7 12.668H14.3333" stroke="#67809A" stroke-width="1.33333" stroke-linecap="round" stroke-linejoin="round"/>
<path d="M7 3.33203H14.3333" stroke="#67809A" stroke-width="1.33333" stroke-linecap="round" stroke-linejoin="round"/>
</svg>
