<svg width="20" height="20" viewBox="0 0 20 20" fill="none" xmlns="http://www.w3.org/2000/svg">
<path d="M9.99935 17.5026C14.9993 17.5026 15.8327 13.1411 15.8327 11.6693C15.8327 10.3517 15.8327 8.40727 15.8327 5.83594H4.16602C4.16602 7.27023 4.16602 9.21467 4.16602 11.6693C4.16602 13.107 4.99935 17.5026 9.99935 17.5026Z" stroke="#012C57" stroke-width="1.66667" stroke-linejoin="round"/>
<path d="M1.66602 3.33594L4.16602 5.83594" stroke="#012C57" stroke-width="1.66667" stroke-linecap="round" stroke-linejoin="round"/>
<path d="M18.334 3.33594L15.834 5.83594" stroke="#012C57" stroke-width="1.66667" stroke-linecap="round" stroke-linejoin="round"/>
<path d="M1.66602 11.25H4.16602" stroke="#012C57" stroke-width="1.66667" stroke-linecap="round" stroke-linejoin="round"/>
<path d="M18.334 11.25H15.834" stroke="#012C57" stroke-width="1.66667" stroke-linecap="round" stroke-linejoin="round"/>
<path d="M2.91602 18.3359L5.41602 15.8359" stroke="#012C57" stroke-width="1.66667" stroke-linecap="round" stroke-linejoin="round"/>
<path d="M17.084 18.3359L14.584 15.8359" stroke="#012C57" stroke-width="1.66667" stroke-linecap="round" stroke-linejoin="round"/>
<path d="M10 17.5026V5.83594" stroke="#012C57" stroke-width="1.66667" stroke-linecap="round" stroke-linejoin="round"/>
<path d="M6.2168 16.2691C7.08429 16.995 8.30181 17.502 9.99993 17.502C11.713 17.502 12.9369 16.9901 13.8058 16.2578" stroke="#012C57" stroke-width="1.66667" stroke-linecap="round" stroke-linejoin="round"/>
<path d="M13.3327 5.13628C13.3327 3.21863 11.8403 1.66406 9.99935 1.66406C8.1584 1.66406 6.66602 3.21863 6.66602 5.13628V5.83073H13.3327V5.13628Z" stroke="#012C57" stroke-width="1.66667" stroke-linejoin="round"/>
</svg>
