<svg width="16" height="16" viewBox="0 0 16 16" fill="none" xmlns="http://www.w3.org/2000/svg">
<path d="M16 0H0V16H16V0Z" fill="white" fill-opacity="0.01"/>
<path d="M1.6665 6.3335H14.3332V13.3335C14.3332 13.7017 14.0347 14.0002 13.6665 14.0002H2.33317C1.96498 14.0002 1.6665 13.7017 1.6665 13.3335V6.3335Z" stroke="#67809A" stroke-width="1.33333" stroke-linejoin="round"/>
<path d="M1.6665 3.00016C1.6665 2.63197 1.96498 2.3335 2.33317 2.3335H13.6665C14.0347 2.3335 14.3332 2.63197 14.3332 3.00016V6.3335H1.6665V3.00016Z" stroke="#67809A" stroke-width="1.33333" stroke-linejoin="round"/>
<path d="M5.3335 1.3335V4.00016" stroke="#67809A" stroke-width="1.33333" stroke-linecap="round" stroke-linejoin="round"/>
<path d="M10.6665 1.3335V4.00016" stroke="#67809A" stroke-width="1.33333" stroke-linecap="round" stroke-linejoin="round"/>
<path d="M9.3335 11.3335H11.3335" stroke="#67809A" stroke-width="1.33333" stroke-linecap="round" stroke-linejoin="round"/>
<path d="M4.6665 11.3335H6.6665" stroke="#67809A" stroke-width="1.33333" stroke-linecap="round" stroke-linejoin="round"/>
<path d="M9.3335 8.6665H11.3335" stroke="#67809A" stroke-width="1.33333" stroke-linecap="round" stroke-linejoin="round"/>
<path d="M4.6665 8.6665H6.6665" stroke="#67809A" stroke-width="1.33333" stroke-linecap="round" stroke-linejoin="round"/>
</svg>
