<svg width="48" height="48" viewBox="0 0 48 48" fill="none" xmlns="http://www.w3.org/2000/svg">
<rect x="8" width="40" height="40" rx="20" fill="#D0EFFF"/>
<circle cx="20" cy="28" r="18" fill="#FF865E"/>
<path fill-rule="evenodd" clip-rule="evenodd" d="M19.2315 17.0917C18.1184 17.4495 17.4231 18.555 17.6028 19.6808C17.7646 20.6937 18.5783 21.4877 19.6417 21.6701C20.6379 21.8411 21.7588 21.2467 22.2104 20.3081C22.3531 20.0114 22.3682 19.9174 22.3682 19.3244C22.3682 18.722 22.3549 18.6424 22.2046 18.3442C21.952 17.8431 21.5789 17.4777 21.0692 17.2324C20.6723 17.0413 20.5745 17.0183 20.0934 17.0032C19.6941 16.9908 19.4759 17.0132 19.2315 17.0917ZM10.7201 21.3693C9.82376 21.766 9.74661 22.9771 10.5877 23.4497C10.7702 23.5523 11.6195 23.7614 13.735 24.2247C15.3285 24.5737 16.7187 24.8862 16.8245 24.9192C17.1907 25.0332 17.2112 25.1221 17.1685 26.4122C17.0644 29.5504 16.5547 31.9164 15.1151 35.9442C14.5656 37.4814 14.5368 37.5979 14.6165 37.9595C14.8005 38.7951 15.7542 39.2324 16.5779 38.8588C16.7411 38.7847 16.9518 38.6323 17.0461 38.52C17.1678 38.375 17.6161 37.2829 18.593 34.7506C19.3495 32.7897 19.9816 31.1849 19.9977 31.1845C20.0138 31.184 20.0866 31.3439 20.1596 31.5399C20.2325 31.7358 20.8514 33.3458 21.535 35.1175C22.7375 38.2341 22.7865 38.3472 23.0413 38.597C23.4764 39.0235 24.1064 39.1198 24.6703 38.8461C25.0278 38.6725 25.2418 38.4232 25.3603 38.0421C25.4762 37.6695 25.446 37.5382 24.8862 35.9789C23.7214 32.7347 23.2165 30.7465 22.9517 28.3613C22.8493 27.4385 22.7712 25.4582 22.8285 25.2358C22.85 25.1525 22.9281 25.0457 23.0021 24.9985C23.0761 24.9513 24.4782 24.6185 26.1179 24.259C27.8909 23.8703 29.1995 23.5553 29.3467 23.4817C29.9113 23.1993 30.1568 22.5256 29.8954 21.9756C29.6933 21.5503 29.2464 21.2629 28.7872 21.2629C28.6618 21.2629 27.4559 21.4312 26.1075 21.6369C22.8754 22.1299 22.6338 22.1598 21.2122 22.2407C20.2604 22.2949 19.735 22.2949 18.7832 22.2407C17.3666 22.16 17.1352 22.1315 13.881 21.6367C12.5287 21.4311 11.3171 21.2635 11.1886 21.2642C11.06 21.2649 10.8492 21.3121 10.7201 21.3693Z" fill="#012C57"/>
</svg>
