<svg width="16" height="16" viewBox="0 0 16 16" fill="none" xmlns="http://www.w3.org/2000/svg">
<path d="M1.39709 7.3924C1.36322 7.00287 1.67027 6.66797 2.06125 6.66797H3.33409C3.70229 6.66797 4.00076 6.96644 4.00076 7.33464V13.668C4.00076 14.0362 3.70229 14.3346 3.33409 14.3346H2.61197C2.26617 14.3346 1.97777 14.0702 1.94781 13.7257L1.39709 7.3924Z" stroke="#012C57" stroke-width="1.33333" stroke-linecap="round" stroke-linejoin="round"/>
<path d="M6 7.12614C6 6.84757 6.17313 6.59824 6.4251 6.47947C6.9746 6.22044 7.91097 5.69924 8.33333 4.9948C8.8777 4.08694 8.98037 2.44662 8.99707 2.0709C8.9994 2.0183 8.9979 1.96564 9.00513 1.91349C9.09537 1.26279 10.3514 2.02294 10.8333 2.82668C11.0949 3.26287 11.1284 3.83597 11.1009 4.2834C11.0715 4.76214 10.9311 5.2246 10.7934 5.68407L10.5 6.6628H14.119C14.5611 6.6628 14.8807 7.08524 14.7605 7.51067L12.9704 13.8492C12.8893 14.1363 12.6273 14.3346 12.3289 14.3346H6.66667C6.29847 14.3346 6 14.0362 6 13.668V7.12614Z" stroke="#012C57" stroke-width="1.33333" stroke-linecap="round" stroke-linejoin="round"/>
</svg>
