<svg width="178" height="64" viewBox="0 0 178 64" fill="none" xmlns="http://www.w3.org/2000/svg">
<rect x="0.5" y="0.5" width="177" height="63" rx="15.5" stroke="white"/>
<path fill-rule="evenodd" clip-rule="evenodd" d="M39.3349 12.3231C36.7594 13.161 35.1898 14.3655 34.0808 16.3549C33.2877 17.7776 32.7312 19.74 32.7312 21.1145C32.7312 21.8264 32.6727 21.809 34.1814 21.544C35.4973 21.3129 36.5562 20.7853 37.6043 19.8387C39.1179 18.4715 40.1085 16.8386 40.61 14.8839C40.9224 13.666 40.9196 12.0497 40.6049 12.0012C40.5001 11.9851 39.9286 12.1299 39.3349 12.3231ZM39.081 21.2242C38.4873 21.3496 37.4586 21.6251 36.795 21.8362C35.2071 22.3415 34.0594 22.6015 33.4074 22.6038C33.1159 22.6048 31.7489 22.3241 30.3699 21.9799C26.6107 21.0418 24.8185 20.9697 22.8171 21.6758C17.8079 23.443 15.0612 29.8859 16.2926 36.9801C17.329 42.9515 21.3331 49.7938 24.7661 51.4602C25.5933 51.8617 25.9138 51.9479 26.7345 51.9893C27.802 52.0431 28.3506 51.9168 30.6075 51.098C33.0615 50.2076 34.3203 50.2281 37.43 51.2096C38.373 51.5072 39.5027 51.8148 39.9405 51.8929C42.7369 52.3922 45.3483 50.3246 48.2849 45.2862C48.9001 44.2305 50.0004 41.7267 50 41.3828C50 41.2755 49.6715 41.0444 49.2341 40.8438C47.781 40.1772 45.9659 38.1598 45.2442 36.4092C44.5611 34.752 44.3767 32.7719 44.7428 31.0246C45.1393 29.1326 46.0949 27.5673 47.8439 25.9455L48.8784 24.9862L48.6182 24.626C48.2458 24.1106 46.8971 22.904 46.1402 22.4093C44.1897 21.134 41.5796 20.6959 39.081 21.2242Z" fill="white"/>
<path d="M65.528 15.636H62.924V24H65.528C68.276 24 69.968 22.428 69.968 19.836C69.968 17.244 68.276 15.636 65.528 15.636ZM64.016 23.1V16.524H65.528C67.712 16.524 68.852 17.796 68.852 19.836C68.852 21.876 67.712 23.1 65.528 23.1H64.016ZM77.6484 20.7C77.6484 18.624 76.1964 17.316 74.3244 17.316C72.4644 17.316 71.0004 18.624 71.0004 20.7C71.0004 22.788 72.4164 24.108 74.2764 24.108C76.1484 24.108 77.6484 22.788 77.6484 20.7ZM72.1164 20.7C72.1164 19.044 73.1604 18.264 74.3124 18.264C75.4404 18.264 76.5324 19.044 76.5324 20.7C76.5324 22.368 75.4164 23.148 74.2764 23.148C73.1364 23.148 72.1164 22.368 72.1164 20.7ZM80.3682 24H81.4962L83.0802 18.78L84.6642 24H85.7922L87.8442 17.424H86.7642L85.2762 22.956L83.6802 17.424H82.5642L80.9322 22.944L79.4202 17.424H78.3042L80.3682 24ZM93.7399 24H94.8199V20.124C94.8199 18.24 93.6559 17.304 92.1319 17.304C91.2439 17.304 90.4519 17.676 90.0199 18.36V17.424H88.9279V24H90.0199V20.364C90.0199 18.948 90.7879 18.252 91.9039 18.252C93.0079 18.252 93.7399 18.936 93.7399 20.28V24ZM96.6037 24H97.6957V15.12H96.6037V24ZM105.797 20.7C105.797 18.624 104.345 17.316 102.473 17.316C100.613 17.316 99.1488 18.624 99.1488 20.7C99.1488 22.788 100.565 24.108 102.425 24.108C104.297 24.108 105.797 22.788 105.797 20.7ZM100.265 20.7C100.265 19.044 101.309 18.264 102.461 18.264C103.589 18.264 104.681 19.044 104.681 20.7C104.681 22.368 103.565 23.148 102.425 23.148C101.285 23.148 100.265 22.368 100.265 20.7ZM106.825 20.688C106.825 22.728 108.181 24.108 109.933 24.108C111.145 24.108 111.997 23.484 112.393 22.776V24H113.497V17.424H112.393V18.624C112.009 17.94 111.169 17.316 109.945 17.316C108.181 17.316 106.825 18.636 106.825 20.688ZM112.393 20.7C112.393 22.248 111.361 23.148 110.161 23.148C108.961 23.148 107.941 22.236 107.941 20.688C107.941 19.14 108.961 18.264 110.161 18.264C111.361 18.264 112.393 19.176 112.393 20.7ZM114.934 20.688C114.934 22.728 116.29 24.108 118.054 24.108C119.254 24.108 120.106 23.496 120.502 22.764V24H121.606V15.12H120.502V18.6C120.046 17.844 119.098 17.316 118.066 17.316C116.29 17.316 114.934 18.636 114.934 20.688ZM120.502 20.7C120.502 22.248 119.47 23.148 118.27 23.148C117.07 23.148 116.05 22.236 116.05 20.688C116.05 19.14 117.07 18.264 118.27 18.264C119.47 18.264 120.502 19.176 120.502 20.7ZM132.891 20.7C132.891 18.624 131.439 17.316 129.567 17.316C127.707 17.316 126.243 18.624 126.243 20.7C126.243 22.788 127.659 24.108 129.519 24.108C131.391 24.108 132.891 22.788 132.891 20.7ZM127.359 20.7C127.359 19.044 128.403 18.264 129.555 18.264C130.683 18.264 131.775 19.044 131.775 20.7C131.775 22.368 130.659 23.148 129.519 23.148C128.379 23.148 127.359 22.368 127.359 20.7ZM139.138 24H140.218V20.124C140.218 18.24 139.054 17.304 137.53 17.304C136.642 17.304 135.85 17.676 135.418 18.36V17.424H134.326V24H135.418V20.364C135.418 18.948 136.186 18.252 137.302 18.252C138.406 18.252 139.138 18.936 139.138 20.28V24Z" fill="white"/>
<path d="M72.86 47H75.82L70.8 33.02H67.54L62.52 47H65.46L66.38 44.34H71.94L72.86 47ZM71.18 42.1H67.14L69.16 36.26L71.18 42.1ZM80.4964 37.52V35.92H77.6964V52.28H80.4964V45.42C81.1764 46.32 82.4164 47.18 84.1564 47.18C86.9964 47.18 89.2164 44.88 89.2164 41.42C89.2164 37.96 86.9964 35.74 84.1564 35.74C82.4364 35.74 81.1564 36.58 80.4964 37.52ZM86.3564 41.42C86.3564 43.52 84.9364 44.72 83.4164 44.72C81.9164 44.72 80.4964 43.56 80.4964 41.46C80.4964 39.36 81.9164 38.2 83.4164 38.2C84.9364 38.2 86.3564 39.32 86.3564 41.42ZM94.0511 37.52V35.92H91.2511V52.28H94.0511V45.42C94.7311 46.32 95.9711 47.18 97.7111 47.18C100.551 47.18 102.771 44.88 102.771 41.42C102.771 37.96 100.551 35.74 97.7111 35.74C95.9911 35.74 94.7111 36.58 94.0511 37.52ZM99.9111 41.42C99.9111 43.52 98.4911 44.72 96.9711 44.72C95.4711 44.72 94.0511 43.56 94.0511 41.46C94.0511 39.36 95.4711 38.2 96.9711 38.2C98.4911 38.2 99.9111 39.32 99.9111 41.42ZM119.331 42.96C119.331 38.04 112.171 39.6 112.171 36.8C112.171 35.66 112.991 35.12 114.091 35.16C115.291 35.18 116.031 35.9 116.091 36.82H119.171C118.991 34.3 117.031 32.84 114.171 32.84C111.291 32.84 109.251 34.36 109.251 36.88C109.231 41.94 116.431 40.12 116.431 43.14C116.431 44.14 115.651 44.84 114.331 44.84C113.031 44.84 112.291 44.1 112.211 42.98H109.211C109.251 45.62 111.491 47.14 114.391 47.14C117.571 47.14 119.331 45.16 119.331 42.96ZM122.199 43.56C122.199 46.1 123.619 47 125.739 47H127.499V44.64H126.199C125.319 44.64 125.019 44.32 125.019 43.58V38.22H127.499V35.92H125.019V33.18H122.199V35.92H120.879V38.22H122.199V43.56ZM140.213 41.46C140.213 37.96 137.713 35.74 134.513 35.74C131.313 35.74 128.813 37.96 128.813 41.46C128.813 44.94 131.233 47.18 134.433 47.18C137.653 47.18 140.213 44.94 140.213 41.46ZM131.653 41.46C131.653 39.24 132.993 38.18 134.473 38.18C135.953 38.18 137.333 39.24 137.333 41.46C137.333 43.66 135.913 44.74 134.433 44.74C132.933 44.74 131.653 43.66 131.653 41.46ZM145.067 41.48C145.067 39.34 146.067 38.7 147.727 38.7H148.467V35.76C146.927 35.76 145.767 36.5 145.067 37.64V35.92H142.267V47H145.067V41.48ZM155.113 38.04C156.553 38.04 157.713 38.96 157.753 40.42H152.493C152.713 38.9 153.773 38.04 155.113 38.04ZM160.373 43.52H157.353C156.993 44.26 156.333 44.86 155.133 44.86C153.733 44.86 152.613 43.94 152.473 42.3H160.573C160.633 41.94 160.653 41.58 160.653 41.22C160.653 37.92 158.393 35.74 155.193 35.74C151.913 35.74 149.633 37.96 149.633 41.46C149.633 44.94 151.973 47.18 155.193 47.18C157.933 47.18 159.773 45.56 160.373 43.52Z" fill="white"/>
</svg>
