<svg width="40" height="40" viewBox="0 0 40 40" fill="none" xmlns="http://www.w3.org/2000/svg">
<path d="M27.416 11.6666H12.5827C12.3396 11.6666 12.1064 11.7632 11.9345 11.9351C11.7626 12.107 11.666 12.3402 11.666 12.5833V27.4166C11.666 27.537 11.6897 27.6562 11.7358 27.7674C11.7819 27.8786 11.8494 27.9797 11.9345 28.0648C12.0196 28.1499 12.1207 28.2174 12.2319 28.2635C12.3431 28.3096 12.4623 28.3333 12.5827 28.3333H20.566V21.875H18.3993V19.375H20.566V17.5C20.5211 17.0598 20.5731 16.6151 20.7183 16.1971C20.8635 15.7791 21.0983 15.3979 21.4064 15.0803C21.7145 14.7627 22.0883 14.5163 22.5017 14.3585C22.9151 14.2007 23.358 14.1352 23.7993 14.1666C24.448 14.1626 25.0963 14.196 25.741 14.2666V16.5166H24.416C23.366 16.5166 23.166 17.0166 23.166 17.7416V19.35H25.666L25.341 21.85H23.166V28.3333H27.416C27.5364 28.3333 27.6556 28.3096 27.7668 28.2635C27.878 28.2174 27.9791 28.1499 28.0642 28.0648C28.1493 27.9797 28.2168 27.8786 28.2629 27.7674C28.309 27.6562 28.3327 27.537 28.3327 27.4166V12.5833C28.3327 12.4629 28.309 12.3437 28.2629 12.2325C28.2168 12.1213 28.1493 12.0202 28.0642 11.9351C27.9791 11.85 27.878 11.7825 27.7668 11.7364C27.6556 11.6903 27.5364 11.6666 27.416 11.6666Z" fill="white"/>
<circle cx="20" cy="20" r="19.5" stroke="#67809A"/>
</svg>
