<svg width="40" height="40" viewBox="0 0 40 40" fill="none" xmlns="http://www.w3.org/2000/svg">
<path d="M28.3327 14.8334C27.7063 15.1051 27.0439 15.2848 26.366 15.3667C27.0812 14.9395 27.6171 14.2674 27.8743 13.4751C27.2023 13.8751 26.4667 14.157 25.6993 14.3084C25.1865 13.7522 24.5035 13.382 23.7575 13.2558C23.0116 13.1296 22.2448 13.2545 21.5775 13.611C20.9102 13.9676 20.3801 14.5355 20.0704 15.2257C19.7606 15.916 19.6888 16.6895 19.866 17.4251C18.5072 17.3563 17.1781 17.0025 15.9649 16.3866C14.7517 15.7707 13.6817 14.9065 12.8243 13.8501C12.5236 14.3752 12.3656 14.9699 12.366 15.5751C12.3649 16.137 12.5029 16.6906 12.7675 17.1864C13.0321 17.6821 13.4152 18.1048 13.8827 18.4167C13.3393 18.4019 12.8076 18.2561 12.3327 17.9917V18.0334C12.3368 18.8208 12.6127 19.5826 13.1138 20.19C13.6149 20.7974 14.3104 21.2131 15.0827 21.3667C14.7854 21.4572 14.4767 21.5049 14.166 21.5084C13.9509 21.5059 13.7364 21.4864 13.5243 21.4501C13.7443 22.1274 14.1699 22.7193 14.7419 23.1435C15.314 23.5677 16.004 23.803 16.716 23.8167C15.5137 24.7628 14.0293 25.2791 12.4993 25.2834C12.2208 25.2843 11.9425 25.2676 11.666 25.2334C13.228 26.2419 15.0484 26.7773 16.9077 26.7751C18.1908 26.7884 19.4636 26.5459 20.6519 26.0618C21.8403 25.5777 22.9202 24.8616 23.8287 23.9555C24.7372 23.0493 25.456 21.9712 25.9431 20.7841C26.4303 19.5971 26.676 18.3248 26.666 17.0417C26.666 16.9001 26.666 16.7501 26.666 16.6001C27.3199 16.1124 27.8839 15.5146 28.3327 14.8334Z" fill="white"/>
<circle cx="20" cy="20" r="19.5" stroke="#67809A"/>
</svg>
