<svg width="17" height="16" viewBox="0 0 17 16" fill="none" xmlns="http://www.w3.org/2000/svg">
<g clip-path="url(#clip0_1052_61327)">
<path d="M16.5 0H0.5V16H16.5V0Z" fill="white" fill-opacity="0.01"/>
<path d="M13.7761 7.25826L7.8229 13.2114C6.68483 14.3495 4.81247 14.3224 3.64088 13.1508C2.46931 11.9793 2.44218 10.1069 3.58028 8.9688L9.53343 3.01562" stroke="#012C57" stroke-width="1.33333" stroke-linecap="round"/>
<path d="M3.41211 9.14346L12.1268 8.91406" stroke="#012C57" stroke-width="1.33333" stroke-linecap="round"/>
<path d="M10.2982 6.9662C10.5586 6.70583 10.5586 6.28373 10.2982 6.0234C10.0379 5.76303 9.61577 5.76303 9.35541 6.0234C9.09507 6.28373 9.09507 6.70583 9.35541 6.9662C9.61577 7.22653 10.0379 7.22653 10.2982 6.9662Z" fill="#012C57"/>
<path d="M8.41151 7.91151C8.67188 7.65118 8.67188 7.22905 8.41151 6.96871C8.15118 6.70835 7.72905 6.70835 7.46871 6.96871C7.20835 7.22905 7.20835 7.65118 7.46871 7.91151C7.72905 8.17188 8.15118 8.17188 8.41151 7.91151Z" fill="#012C57"/>
<path d="M8.35547 1.84375L14.9551 8.44343" stroke="#012C57" stroke-width="1.33333" stroke-linecap="round"/>
</g>
<defs>
<clipPath id="clip0_1052_61327">
<rect width="16" height="16" fill="white" transform="translate(0.5)"/>
</clipPath>
</defs>
</svg>
