<svg width="20" height="20" viewBox="0 0 20 20" fill="none" xmlns="http://www.w3.org/2000/svg">
<path d="M15.7977 1.79688H4.13391C3.67378 1.79688 3.30078 2.17005 3.30078 2.63038V17.6334C3.30078 18.0937 3.67378 18.4669 4.13391 18.4669H15.7977C16.2578 18.4669 16.6308 18.0937 16.6308 17.6334V2.63038C16.6308 2.17005 16.2578 1.79688 15.7977 1.79688Z" stroke="#67809A" stroke-width="1.6" stroke-linecap="round" stroke-linejoin="round"/>
<path d="M7.30078 15.6016L12.7008 15.6016" stroke="#67809A" stroke-width="1.63" stroke-linecap="round" stroke-linejoin="round"/>
<path d="M7.28051 8.0614L7.77179 8.53063L7.77179 8.53063L7.28051 8.0614ZM9.81218 5.41077L9.3209 4.94154L9.3209 4.94154L9.81218 5.41077ZM12.6761 5.34505L12.2068 5.83632L12.2068 5.83633L12.6761 5.34505ZM12.7418 8.20894L12.2505 7.7397L12.2505 7.7397L12.7418 8.20894ZM10.2101 10.8596L10.7014 11.3288L10.7014 11.3288L10.2101 10.8596ZM7.34624 10.9253L6.877 11.4166L6.877 11.4166L7.34624 10.9253ZM9.09936 6.84344C8.82891 6.58336 8.39884 6.59177 8.13877 6.86222C7.8787 7.13267 7.88711 7.56273 8.15756 7.82281L9.09936 6.84344ZM10.571 10.1436C10.8414 10.4037 11.2715 10.3953 11.5315 10.1248C11.7916 9.8544 11.7832 9.42433 11.5128 9.16426L10.571 10.1436ZM10.3035 5.88001C10.817 5.34234 11.6692 5.32278 12.2068 5.83632L13.1453 4.85377C12.065 3.82192 10.3528 3.86122 9.3209 4.94154L10.3035 5.88001ZM12.2068 5.83633C12.7445 6.34987 12.7641 7.20203 12.2505 7.7397L13.2331 8.67818C14.2649 7.59786 14.2257 5.88561 13.1453 4.85376L12.2068 5.83633ZM9.71886 10.3903C9.20531 10.928 8.35314 10.9475 7.81547 10.434L6.877 11.4166C7.95733 12.4484 9.66957 12.4091 10.7014 11.3288L9.71886 10.3903ZM7.81547 10.434C7.2778 9.92046 7.25825 9.0683 7.77179 8.53063L6.78923 7.59216C5.75738 8.67248 5.79668 10.3847 6.877 11.4166L7.81547 10.434ZM8.15756 7.82281L10.571 10.1436L11.5128 9.16426L9.09936 6.84344L8.15756 7.82281ZM7.77179 8.53063L10.3035 5.88001L9.3209 4.94154L6.78923 7.59216L7.77179 8.53063ZM12.2505 7.7397L9.71885 10.3903L10.7014 11.3288L13.2331 8.67817L12.2505 7.7397Z" fill="#67809A"/>
</svg>
