<svg width="20" height="20" viewBox="0 0 20 20" fill="none" xmlns="http://www.w3.org/2000/svg">
<path d="M9.99935 2.91406C5.39697 2.91406 1.66602 6.64502 1.66602 11.2474C1.66602 13.4266 2.37995 15.5958 3.74935 17.0807H16.2493C17.6188 15.5958 18.3327 13.4266 18.3327 11.2474C18.3327 6.64502 14.6017 2.91406 9.99935 2.91406Z" stroke="#67809A" stroke-width="1.66667" stroke-linecap="round" stroke-linejoin="round"/>
<path d="M10.0007 14.1693C10.9211 14.1693 11.6673 13.4231 11.6673 12.5026C11.6673 11.5821 10.9211 10.8359 10.0007 10.8359C9.08018 10.8359 8.33398 11.5821 8.33398 12.5026C8.33398 13.4231 9.08018 14.1693 10.0007 14.1693Z" stroke="#67809A" stroke-width="1.66667" stroke-linecap="round" stroke-linejoin="round"/>
<path d="M10 8.33594V10.8359" stroke="#67809A" stroke-width="1.66667" stroke-linecap="round" stroke-linejoin="round"/>
<path d="M10 5V5.83333" stroke="#67809A" stroke-width="1.66667" stroke-linecap="round" stroke-linejoin="round"/>
<path d="M3.75 11.6641H4.58333" stroke="#67809A" stroke-width="1.66667" stroke-linecap="round" stroke-linejoin="round"/>
<path d="M5.41602 7.5L6.00527 8.08925" stroke="#67809A" stroke-width="1.66667" stroke-linecap="round" stroke-linejoin="round"/>
<path d="M15.416 11.6641H16.2493" stroke="#67809A" stroke-width="1.66667" stroke-linecap="round" stroke-linejoin="round"/>
<path d="M14.166 8.08925L14.7553 7.5" stroke="#67809A" stroke-width="1.66667" stroke-linecap="round" stroke-linejoin="round"/>
</svg>
