<svg width="153" height="34" viewBox="0 0 153 34" fill="none" xmlns="http://www.w3.org/2000/svg">
<path d="M69.03 21.7716H72.6199V14.8594C72.6199 11.6789 70.7405 9.81304 67.8263 9.81304C66.1159 9.81304 64.6377 10.7672 63.8563 12.0182C63.0539 10.5975 61.6179 9.81304 59.8441 9.81304C58.3026 9.81304 57.0989 10.4703 56.402 11.4245V9.94025H52.791V21.7716H56.402V15.347C56.402 13.7992 57.2889 12.9511 58.6616 12.9511C60.0342 12.9511 60.9211 13.7992 60.9211 15.347V21.7716H64.511V15.347C64.511 13.7992 65.3979 12.9511 66.7705 12.9511C68.1431 12.9511 69.03 13.7992 69.03 15.347V21.7716Z" fill="#012C57"/>
<path d="M80.3402 12.6754C81.5438 12.6754 82.5575 13.4176 82.5575 14.7109H78.0384C78.2496 13.3963 79.1576 12.6754 80.3402 12.6754ZM85.9784 17.849H82.1351C81.8395 18.4851 81.2693 18.994 80.2557 18.994C79.0943 18.994 78.144 18.2731 78.0173 16.7252H86.1896C86.2318 16.3648 86.2529 16.0043 86.2529 15.6651C86.2529 12.0606 83.8245 9.77063 80.3824 9.77063C76.877 9.77063 74.4274 12.103 74.4274 15.8559C74.4274 19.6088 76.9192 21.9412 80.3824 21.9412C83.3177 21.9412 85.4083 20.1601 85.9784 17.849Z" fill="#012C57"/>
<path d="M87.4399 15.8347C87.4399 19.5664 89.7417 21.9412 92.6347 21.9412C94.3663 21.9412 95.6122 21.1567 96.2669 20.0753V21.7716H99.8779V6.0813H96.2669V11.5729C95.5489 10.4915 94.1974 9.77063 92.6347 9.77063C89.7417 9.77063 87.4399 12.103 87.4399 15.8347ZM96.2669 15.8559C96.2669 17.743 95.0632 18.7819 93.6906 18.7819C92.3391 18.7819 91.1143 17.7218 91.1143 15.8347C91.1143 13.9476 92.3391 12.9299 93.6906 12.9299C95.0632 12.9299 96.2669 13.9688 96.2669 15.8559Z" fill="#012C57"/>
<path d="M101.772 15.8347C101.772 19.5664 104.074 21.9412 106.946 21.9412C108.699 21.9412 109.945 21.1355 110.599 20.0965V21.7716H114.21V9.94025H110.599V11.6153C109.966 10.5763 108.72 9.77063 106.967 9.77063C104.074 9.77063 101.772 12.103 101.772 15.8347ZM110.599 15.8559C110.599 17.743 109.396 18.7819 108.023 18.7819C106.671 18.7819 105.447 17.7218 105.447 15.8347C105.447 13.9476 106.671 12.9299 108.023 12.9299C109.396 12.9299 110.599 13.9688 110.599 15.8559Z" fill="#012C57"/>
<path d="M116.823 21.7716H120.434V6.0813H116.823V21.7716Z" fill="#012C57"/>
<path d="M128.478 17.3401L125.754 9.94025H121.72L126.514 21.3687L123.811 27.3904H127.696L135.087 9.94025H131.181L128.478 17.3401Z" fill="#012C57"/>
<path d="M135.675 15.8559C135.675 19.6088 138.125 21.9412 141.588 21.9412C144.544 21.9412 146.635 20.2237 147.247 17.4885H143.404C143.087 18.3579 142.517 18.8455 141.524 18.8455C140.236 18.8455 139.349 17.8278 139.349 15.8559C139.349 13.884 140.236 12.8663 141.524 12.8663C142.517 12.8663 143.108 13.3963 143.404 14.2233H147.247C146.635 11.4033 144.544 9.77063 141.588 9.77063C138.125 9.77063 135.675 12.1242 135.675 15.8559Z" fill="#012C57"/>
<path d="M153.001 19.9905C153.001 18.8667 152.135 17.9974 150.868 17.9974C149.58 17.9974 148.714 18.8667 148.714 19.9905C148.714 21.0719 149.58 21.9412 150.868 21.9412C152.135 21.9412 153.001 21.0719 153.001 19.9905Z" fill="#012C57"/>
<path d="M16.9299 5.16971C16.9026 1.82407 19.3761 0.149839 22.4546 1.4302L33.6029 6.0668C36.6815 7.34717 39.1993 11.0973 39.2266 14.4429L39.3256 26.5585C39.3529 29.9042 36.8794 31.5784 33.8009 30.298L22.6526 25.6614C19.574 24.3811 17.0562 20.631 17.0289 17.2853L16.9299 5.16971Z" fill="#67809A"/>
<path d="M14.2579 1.72574C12.6049 1.03823 11.0314 1.11455 9.85861 1.90834C8.68638 2.70179 8.02659 4.13628 8.04126 5.931L8.14024 18.0466C8.15487 19.837 8.83264 21.7048 9.89274 23.2838C10.9528 24.8626 12.4233 26.1947 14.0719 26.8803L25.2202 31.5169C26.8733 32.2044 28.4468 32.1281 29.6195 31.3343C30.7918 30.5409 31.4516 29.1064 31.4369 27.3116L31.3379 15.196C31.3233 13.4056 30.6455 11.5378 29.5854 9.95888C28.5254 8.38001 27.0549 7.04799 25.4063 6.36234L14.2579 1.72574Z" fill="#67809A" stroke="white"/>
<path d="M6.71691 3.24027C5.06384 2.55275 3.49034 2.62907 2.3176 3.42287C1.14537 4.21632 0.485578 5.65081 0.500241 7.44552L0.599225 19.5611C0.613853 21.3516 1.29162 23.2193 2.35172 24.7983C3.41177 26.3772 4.88228 27.7092 6.53086 28.3948L17.6792 33.0314C19.3323 33.7189 20.9058 33.6426 22.0785 32.8488C23.2507 32.0554 23.9105 30.6209 23.8959 28.8262L23.7969 16.7106C23.7823 14.9201 23.1045 13.0524 22.0444 11.4734C20.9843 9.89453 19.5138 8.56252 17.8653 7.87687L6.71691 3.24027Z" fill="#012C57" stroke="white"/>
<path d="M12.1478 12.0781C11.588 11.8453 11.1383 12.1497 11.1433 12.758L11.1748 16.613L7.62757 15.1377C7.06784 14.9049 6.61812 15.2093 6.62309 15.8176C6.62806 16.4259 7.08584 17.1077 7.64557 17.3405L11.1928 18.8158L11.2243 22.6708C11.2292 23.2791 11.687 23.9609 12.2468 24.1937C12.8065 24.4265 13.2562 24.1221 13.2512 23.5138C13.2338 21.3848 14.8079 20.3193 16.7669 21.1341C17.3267 21.3669 17.7764 21.0625 17.7714 20.4542C17.7665 19.8459 17.3087 19.1641 16.7489 18.9313L13.2017 17.456L13.1702 13.601C13.1653 12.9927 12.7075 12.3109 12.1478 12.0781Z" fill="white"/>
</svg>
