<svg width="48" height="48" viewBox="0 0 48 48" fill="none" xmlns="http://www.w3.org/2000/svg">
<circle cx="26" cy="22" r="22" fill="#D0EFFF"/>
<path d="M7.50065 13H30.5006C31.4211 13 32.1673 13.7462 32.1673 14.6667V41.3333C32.1673 42.2538 31.4211 43 30.5006 43H7.50065C6.58018 43 5.83398 42.2538 5.83398 41.3333V14.6667C5.83398 13.7462 6.58018 13 7.50065 13Z" fill="#FF865E"/>
<path d="M30.531 30.5C32.5392 30.5 34.1673 32.067 34.1673 34C34.1673 36.5163 31.7431 38.6667 30.531 39.8333C29.7229 40.6111 28.7127 41.3889 27.5007 42.1667C26.2886 41.3889 25.2784 40.6111 24.4703 39.8333C23.2582 38.6667 20.834 36.5163 20.834 34C20.834 32.067 22.4621 30.5 24.4703 30.5C25.7352 30.5 26.8492 31.1216 27.5007 32.0646C28.1522 31.1216 29.2661 30.5 30.531 30.5Z" fill="#012C57" stroke="#012C57" stroke-width="3.33333" stroke-linejoin="round"/>
<path d="M12.5 19.667H25.8333H12.5Z" fill="#012C57"/>
<path d="M12.5 19.667H25.8333" stroke="#012C57" stroke-width="3.33333" stroke-linecap="round"/>
</svg>
