<svg width="20" height="20" viewBox="0 0 20 20" fill="none" xmlns="http://www.w3.org/2000/svg">
<path d="M10.8838 15.6011C10.8838 15.6011 15.5978 10.8871 16.7763 9.70859C17.9548 8.53005 18.5441 5.5838 16.4817 3.52139C14.4193 1.459 11.4731 2.04825 10.2945 3.22676C9.11601 4.40526 2.92883 10.5925 2.33958 11.1817C1.75032 11.771 0.866439 13.8334 2.63421 15.6011C4.40197 17.3689 6.46439 16.485 7.05364 15.8958C7.64289 15.3065 14.1247 8.82468 14.7139 8.23543C15.3032 7.64618 15.5978 6.17305 14.7139 5.28918C13.8301 4.40526 12.3569 4.69988 11.7677 5.28918C11.1784 5.87843 6.16976 10.8871 6.16976 10.8871" stroke="#012C57" stroke-width="1.66667" stroke-linecap="round" stroke-linejoin="round"/>
</svg>
