<svg width="16" height="16" viewBox="0 0 16 16" fill="none" xmlns="http://www.w3.org/2000/svg">
<path d="M16 0H0V16H16V0Z" fill="white" fill-opacity="0.01"/>
<path d="M12.666 1.33203H3.33268C2.96449 1.33203 2.66602 1.63051 2.66602 1.9987V13.9987C2.66602 14.3669 2.96449 14.6654 3.33268 14.6654H12.666C13.0342 14.6654 13.3327 14.3669 13.3327 13.9987V1.9987C13.3327 1.63051 13.0342 1.33203 12.666 1.33203Z" stroke="#012C57" stroke-width="1.33333" stroke-linecap="round" stroke-linejoin="round"/>
<path d="M5.66602 12.0781H10.3327" stroke="#012C57" stroke-width="1.33333" stroke-linecap="round" stroke-linejoin="round"/>
<path d="M5.74634 6.34388L6.17624 6.75449L6.17625 6.75449L5.74634 6.34388ZM7.8486 4.14285L7.4187 3.73223L7.41869 3.73223L7.8486 4.14285ZM10.2267 4.08827L9.81611 4.51817L9.81611 4.51818L10.2267 4.08827ZM10.2813 6.46639L9.8514 6.05578L9.8514 6.05578L10.2813 6.46639ZM8.17905 8.66742L8.60895 9.07804L8.60896 9.07804L8.17905 8.66742ZM5.80092 8.722L5.39031 9.15191L5.39031 9.15191L5.80092 8.722ZM7.27772 5.31062C7.04106 5.08304 6.66472 5.0904 6.43714 5.32706C6.20956 5.56372 6.21692 5.94006 6.45358 6.16764L7.27772 5.31062ZM8.45763 8.09481C8.69429 8.32239 9.07063 8.31503 9.29821 8.07837C9.52579 7.84171 9.51843 7.46537 9.28177 7.23779L8.45763 8.09481ZM8.2785 4.55346C8.69336 4.11912 9.38177 4.10332 9.81611 4.51817L10.6373 3.65837C9.72814 2.78995 8.2871 2.82303 7.4187 3.73223L8.2785 4.55346ZM9.81611 4.51818C10.2505 4.93303 10.2663 5.62143 9.8514 6.05578L10.7112 6.87701C11.5796 5.96781 11.5466 4.52677 10.6373 3.65836L9.81611 4.51818ZM7.74915 8.25681C7.33429 8.69115 6.64588 8.70695 6.21153 8.2921L5.39031 9.15191C6.29952 10.0203 7.74055 9.98724 8.60895 9.07804L7.74915 8.25681ZM6.21153 8.2921C5.77719 7.87724 5.76139 7.18883 6.17624 6.75449L5.31644 5.93326C4.44803 6.84247 4.4811 8.2835 5.39031 9.15191L6.21153 8.2921ZM6.45358 6.16764L8.45763 8.09481L9.28177 7.23779L7.27772 5.31062L6.45358 6.16764ZM6.17625 6.75449L8.2785 4.55346L7.41869 3.73223L5.31643 5.93326L6.17625 6.75449ZM9.8514 6.05578L7.74914 8.25681L8.60896 9.07804L10.7112 6.87701L9.8514 6.05578Z" fill="#012C57"/>
</svg>
