<svg width="16" height="16" viewBox="0 0 16 16" fill="none" xmlns="http://www.w3.org/2000/svg">
<path d="M16 0H0V16H16V0Z" fill="white" fill-opacity="0.01"/>
<path d="M11.6667 5.33333C12.5871 5.33333 13.3333 4.58713 13.3333 3.66667C13.3333 2.74619 12.5871 2 11.6667 2C10.7462 2 10 2.74619 10 3.66667C10 4.58713 10.7462 5.33333 11.6667 5.33333Z" stroke="#012C57" stroke-width="1.33333" stroke-linejoin="round"/>
<path d="M4.33268 9.66659C5.25315 9.66659 5.99935 8.92039 5.99935 7.99992C5.99935 7.07945 5.25315 6.33325 4.33268 6.33325C3.41222 6.33325 2.66602 7.07945 2.66602 7.99992C2.66602 8.92039 3.41222 9.66659 4.33268 9.66659Z" stroke="#012C57" stroke-width="1.33333" stroke-linejoin="round"/>
<path d="M9.99966 4.5249L5.7793 7.08187" stroke="#012C57" stroke-width="1.33333" stroke-linecap="round" stroke-linejoin="round"/>
<path d="M5.7793 8.85474L10.2261 11.4824" stroke="#012C57" stroke-width="1.33333" stroke-linecap="round" stroke-linejoin="round"/>
<path d="M11.6667 10.6667C12.5871 10.6667 13.3333 11.4129 13.3333 12.3334C13.3333 13.2539 12.5871 14.0001 11.6667 14.0001C10.7462 14.0001 10 13.2539 10 12.3334C10 11.4129 10.7462 10.6667 11.6667 10.6667Z" stroke="#012C57" stroke-width="1.33333" stroke-linejoin="round"/>
</svg>
