<svg width="16" height="16" viewBox="0 0 16 16" fill="none" xmlns="http://www.w3.org/2000/svg">
<path d="M16 0H0V16H16V0Z" fill="white" fill-opacity="0.01"/>
<path d="M6.67792 4.16667C7.10545 4.06053 7.54778 4 8.00065 4C11.6826 4 14.6673 8 14.6673 8C14.6673 8 13.9211 9 12.7147 10M3.2866 6C2.08018 7 1.33398 8 1.33398 8C1.33398 8 4.31875 12 8.00065 12C8.45728 12 8.90318 11.9385 9.33398 11.8307L3.2866 6Z" stroke="#67809A" stroke-width="1.33333" stroke-linecap="round" stroke-linejoin="round"/>
<path d="M6.77205 6.875C6.50002 7.17163 6.33398 7.56703 6.33398 8.00123C6.33398 8.9217 7.08018 9.6679 8.00065 9.6679C8.45488 9.6679 8.86668 9.48617 9.16732 9.19147" stroke="#67809A" stroke-width="1.33333" stroke-linecap="round" stroke-linejoin="round"/>
<path d="M14 14L2 2" stroke="#67809A" stroke-width="1.33333" stroke-linecap="round" stroke-linejoin="round"/>
</svg>
