<svg width="16" height="16" viewBox="0 0 16 16" fill="none" xmlns="http://www.w3.org/2000/svg">
<path d="M16 0H0V16H16V0Z" fill="white" fill-opacity="0.01"/>
<path d="M3.35152 2.33337H1.33398C1.33398 2.33337 1.33398 5.33337 1.33398 7.00004C1.33398 8.66671 2.66732 10.6667 5.33398 10.6667C8.00065 10.6667 9.33398 8.66671 9.33398 7.00004C9.33398 5.33337 9.33398 2.33337 9.33398 2.33337H7.31645M3.35152 1.33337V3.33337M7.31645 1.33337V3.33337" stroke="#012C57" stroke-width="1.33333" stroke-linecap="round" stroke-linejoin="round"/>
<path d="M13.3333 7.66667C14.0697 7.66667 14.6667 7.06971 14.6667 6.33333C14.6667 5.59695 14.0697 5 13.3333 5C12.597 5 12 5.59695 12 6.33333C12 7.06971 12.597 7.66667 13.3333 7.66667Z" stroke="#012C57" stroke-width="1.33333" stroke-linecap="round" stroke-linejoin="round"/>
<path d="M5.33398 10.6666C5.33398 12.8758 7.12485 14.6666 9.33398 14.6666C11.5431 14.6666 13.334 12.8758 13.334 10.6666V7.66663" stroke="#012C57" stroke-width="1.33333" stroke-linecap="round" stroke-linejoin="round"/>
</svg>
