<svg width="16" height="16" viewBox="0 0 16 16" fill="none" xmlns="http://www.w3.org/2000/svg">
<path d="M16 0H0V16H16V0Z" fill="white" fill-opacity="0.01"/>
<path d="M14.0562 9.7482L9.7542 14.0502C9.52914 14.2755 9.2237 14.4021 8.9052 14.4021C8.5867 14.4021 8.2813 14.2755 8.0562 14.0502L2.6665 8.6665V2.6665H8.6665L14.0562 8.0562C14.5215 8.52424 14.5215 9.28017 14.0562 9.7482Z" stroke="#67809A" stroke-width="1.33333" stroke-linejoin="round"/>
<path fill-rule="evenodd" clip-rule="evenodd" d="M6.16683 7.00016C6.62706 7.00016 7.00016 6.62706 7.00016 6.16683C7.00016 5.7066 6.62706 5.3335 6.16683 5.3335C5.7066 5.3335 5.3335 5.7066 5.3335 6.16683C5.3335 6.62706 5.7066 7.00016 6.16683 7.00016Z" fill="#67809A"/>
</svg>
