<svg width="16" height="13" viewBox="0 0 16 13" fill="none" xmlns="http://www.w3.org/2000/svg">
<path d="M16 1.55749C15.3987 1.81786 14.7627 1.98999 14.112 2.06851C14.7985 1.65915 15.313 1.01516 15.56 0.255988C14.9148 0.639302 14.2086 0.90937 13.472 1.05445C12.9796 0.521536 12.324 0.166797 11.6078 0.0458732C10.8917 -0.0750503 10.1556 0.0446811 9.51503 0.386289C8.87443 0.727898 8.36555 1.27206 8.06819 1.93343C7.77084 2.59481 7.70183 3.33598 7.872 4.04072C6.56754 3.97486 5.29155 3.63586 4.12692 3.04572C2.96229 2.45558 1.93508 1.62751 1.112 0.615298C0.82331 1.11847 0.671615 1.68829 0.672 2.26812C0.670976 2.80659 0.803374 3.33696 1.0574 3.81201C1.31143 4.28705 1.67921 4.69203 2.128 4.99089C1.60638 4.97673 1.09591 4.83702 0.64 4.58367V4.6236C0.64391 5.37806 0.908795 6.10802 1.38985 6.69C1.87091 7.27198 2.5386 7.67026 3.28 7.81746C2.9946 7.90415 2.6983 7.94985 2.4 7.9532C2.19351 7.95079 1.98754 7.9321 1.784 7.89731C1.99513 8.54631 2.4037 9.11349 2.95286 9.51992C3.50202 9.92635 4.16446 10.1518 4.848 10.1649C3.69376 11.0714 2.26871 11.5661 0.8 11.5702C0.532588 11.5711 0.265388 11.5551 0 11.5223C1.49954 12.4887 3.24705 13.0017 5.032 12.9995C6.26375 13.0123 7.48571 12.7799 8.62649 12.3161C9.76728 11.8522 10.804 11.1661 11.6762 10.2979C12.5483 9.42965 13.2384 8.39666 13.706 7.25926C14.1737 6.12185 14.4096 4.90284 14.4 3.67342C14.4 3.53768 14.4 3.39396 14.4 3.25023C15.0278 2.78298 15.5692 2.21017 16 1.55749Z" fill="#012C57"/>
</svg>
