<svg width="14" height="14" viewBox="0 0 14 14" fill="none" xmlns="http://www.w3.org/2000/svg">
<path d="M7.00065 6.33203C6.82384 6.33203 6.65427 6.40227 6.52925 6.52729C6.40423 6.65232 6.33399 6.82189 6.33399 6.9987V9.66537C6.33399 9.84218 6.40423 10.0117 6.52925 10.1368C6.65427 10.2618 6.82384 10.332 7.00065 10.332C7.17746 10.332 7.34703 10.2618 7.47206 10.1368C7.59708 10.0117 7.66732 9.84218 7.66732 9.66537V6.9987C7.66732 6.82189 7.59708 6.65232 7.47206 6.52729C7.34703 6.40227 7.17746 6.33203 7.00065 6.33203ZM7.25399 3.7187C7.09168 3.65202 6.90963 3.65202 6.74732 3.7187C6.66549 3.75043 6.59072 3.798 6.52732 3.8587C6.46843 3.9235 6.42108 3.99791 6.38732 4.0787C6.35 4.15782 6.33173 4.24458 6.33399 4.33203C6.33348 4.41977 6.3503 4.50674 6.38347 4.58797C6.41665 4.66919 6.46553 4.74307 6.52732 4.80536C6.59212 4.86425 6.66653 4.9116 6.74732 4.94536C6.84832 4.98686 6.95796 5.00291 7.06662 4.99211C7.17527 4.9813 7.27961 4.94398 7.37046 4.88341C7.46131 4.82284 7.5359 4.74089 7.58766 4.64475C7.63942 4.5486 7.66678 4.44122 7.66732 4.33203C7.66487 4.15552 7.59581 3.98645 7.47399 3.8587C7.41058 3.798 7.33582 3.75043 7.25399 3.7187ZM7.00065 0.332031C5.68211 0.332031 4.39318 0.723024 3.29685 1.45557C2.20052 2.18811 1.34604 3.2293 0.841457 4.44747C0.336873 5.66565 0.204851 7.00609 0.462086 8.2993C0.71932 9.59251 1.35426 10.7804 2.28661 11.7127C3.21896 12.6451 4.40685 13.28 5.70005 13.5373C6.99326 13.7945 8.3337 13.6625 9.55188 13.1579C10.7701 12.6533 11.8112 11.7988 12.5438 10.7025C13.2763 9.60617 13.6673 8.31724 13.6673 6.9987C13.6673 6.12322 13.4949 5.25631 13.1599 4.44747C12.8248 3.63864 12.3338 2.90371 11.7147 2.28465C11.0956 1.6656 10.3607 1.17453 9.55188 0.839501C8.74304 0.50447 7.87613 0.332031 7.00065 0.332031ZM7.00065 12.332C5.94582 12.332 4.91467 12.0192 4.03761 11.4332C3.16055 10.8472 2.47696 10.0142 2.0733 9.03968C1.66963 8.06514 1.56401 6.99278 1.7698 5.95822C1.97559 4.92365 2.48354 3.97334 3.22942 3.22746C3.9753 2.48158 4.92561 1.97363 5.96017 1.76784C6.99474 1.56206 8.06709 1.66767 9.04163 2.07134C10.0162 2.47501 10.8491 3.15859 11.4352 4.03566C12.0212 4.91272 12.334 5.94386 12.334 6.9987C12.334 8.41319 11.7721 9.76974 10.7719 10.7699C9.7717 11.7701 8.41514 12.332 7.00065 12.332Z" fill="#FF865E"/>
</svg>
