<svg width="16" height="16" viewBox="0 0 16 16" fill="none" xmlns="http://www.w3.org/2000/svg">
<circle cx="8" cy="8" r="7.335" stroke="#012C57" stroke-width="1.33"/>
<path fill-rule="evenodd" clip-rule="evenodd" d="M7.65758 3.15209C7.16288 3.31113 6.85384 3.80242 6.93373 4.30278C7.0056 4.75297 7.36727 5.10585 7.83988 5.18694C8.28265 5.26291 8.78084 4.99874 8.98153 4.58159C9.04495 4.44975 9.05167 4.40794 9.05167 4.1444C9.05167 3.87666 9.04576 3.84129 8.97896 3.70876C8.86668 3.48605 8.70085 3.32365 8.47435 3.21461C8.29795 3.12969 8.25446 3.11948 8.04065 3.11277C7.86319 3.10722 7.76618 3.11718 7.65758 3.15209ZM3.87475 5.05322C3.47636 5.22953 3.44207 5.7678 3.81588 5.97785C3.89702 6.02346 4.27448 6.1164 5.21468 6.32232C5.9229 6.47742 6.54079 6.61631 6.5878 6.63096C6.75057 6.68166 6.75967 6.72117 6.74068 7.29451C6.69443 8.68926 6.4679 9.74084 5.82808 11.531C5.58386 12.2142 5.57106 12.2659 5.60647 12.4267C5.68823 12.798 6.11209 12.9924 6.47818 12.8263C6.55073 12.7934 6.64438 12.7257 6.68629 12.6758C6.7404 12.6113 6.93961 12.126 7.3738 11.0005C7.71002 10.129 7.99097 9.41573 7.99812 9.41553C8.00527 9.41533 8.03763 9.48641 8.07005 9.5735C8.10246 9.66059 8.37755 10.3761 8.68136 11.1636C9.21581 12.5487 9.23756 12.599 9.35082 12.71C9.5442 12.8995 9.82421 12.9423 10.0748 12.8207C10.2337 12.7436 10.3288 12.6327 10.3815 12.4634C10.433 12.2978 10.4196 12.2394 10.1708 11.5464C9.65307 10.1045 9.42868 9.22087 9.31099 8.16078C9.26547 7.75065 9.23079 6.87052 9.25626 6.77167C9.26581 6.73465 9.30051 6.68721 9.33339 6.6662C9.36627 6.64522 9.98945 6.49734 10.7182 6.33757C11.5062 6.1648 12.0878 6.0248 12.1532 5.99209C12.4042 5.86658 12.5133 5.56714 12.3971 5.32271C12.3072 5.13367 12.1086 5.00596 11.9046 5.00596C11.8488 5.00596 11.3129 5.08076 10.7136 5.17216C9.27707 5.3913 9.16969 5.40456 8.5379 5.44051C8.11487 5.46461 7.88137 5.46461 7.45834 5.44051C6.82874 5.40466 6.72591 5.39201 5.27956 5.17209C4.67854 5.08071 4.14006 5.00621 4.08294 5.00652C4.02579 5.00682 3.93211 5.02783 3.87475 5.05322Z" fill="#012C57"/>
</svg>
