<svg width="118" height="125" viewBox="0 0 118 125" fill="none" xmlns="http://www.w3.org/2000/svg">
<circle cx="60.31" cy="57.6889" r="57.6889" fill="#D0EFFF"/>
<path d="M104 21H0V125H104V21Z" fill="white" fill-opacity="0.01"/>
<path d="M41.1667 64.3333C49.543 64.3333 56.3333 57.543 56.3333 49.1667C56.3333 40.7904 49.543 34 41.1667 34C32.7903 34 26 40.7904 26 49.1667C26 57.543 32.7903 64.3333 41.1667 64.3333Z" fill="#FF865E" stroke="#FF865E" stroke-width="8.66667" stroke-linecap="round" stroke-linejoin="round"/>
<path d="M8.66406 109.401V112.001H73.6641V109.401C73.6641 99.6938 73.6641 94.84 71.775 91.1322C70.1131 87.8707 67.4613 85.2189 64.1998 83.5571C60.492 81.668 55.6383 81.668 45.9307 81.668H36.3974C26.6899 81.668 21.8361 81.668 18.1282 83.5571C14.8668 85.2189 12.2151 87.8707 10.5533 91.1322C8.66406 94.84 8.66406 99.6938 8.66406 109.401Z" fill="#012C57" stroke="#012C57" stroke-width="8.66667" stroke-linecap="round" stroke-linejoin="round"/>
<path d="M69.3359 62.168H95.3359M82.3359 49.168V75.168V49.168Z" stroke="#FF865E" stroke-width="8.66667" stroke-linecap="round" stroke-linejoin="round"/>
</svg>
