<svg width="9" height="9" viewBox="0 0 9 9" fill="none" xmlns="http://www.w3.org/2000/svg">
<path d="M8.44663 0.413333C8.37898 0.250434 8.24952 0.120983 8.08663 0.0533333C8.00648 0.0191726 7.92041 0.00105332 7.83329 0H1.16663C0.989815 0 0.820246 0.070238 0.695222 0.195262C0.570197 0.320287 0.499959 0.489856 0.499959 0.666667C0.499959 0.843478 0.570197 1.01305 0.695222 1.13807C0.820246 1.2631 0.989815 1.33333 1.16663 1.33333H6.22663L0.693293 6.86C0.630807 6.92198 0.581211 6.99571 0.547365 7.07695C0.513519 7.15819 0.496094 7.24533 0.496094 7.33333C0.496094 7.42134 0.513519 7.50848 0.547365 7.58972C0.581211 7.67096 0.630807 7.74469 0.693293 7.80667C0.755268 7.86915 0.829002 7.91875 0.910241 7.95259C0.991481 7.98644 1.07862 8.00387 1.16663 8.00387C1.25463 8.00387 1.34177 7.98644 1.42301 7.95259C1.50425 7.91875 1.57798 7.86915 1.63996 7.80667L7.16663 2.27333V7.33333C7.16663 7.51014 7.23686 7.67971 7.36189 7.80474C7.48691 7.92976 7.65648 8 7.83329 8C8.0101 8 8.17967 7.92976 8.3047 7.80474C8.42972 7.67971 8.49996 7.51014 8.49996 7.33333V0.666667C8.49891 0.579548 8.48079 0.493481 8.44663 0.413333Z" fill="white"/>
</svg>