<svg width="21" height="20" viewBox="0 0 21 20" fill="none" xmlns="http://www.w3.org/2000/svg">
<g clip-path="url(#clip0_3837_116773)">
<path d="M20.5 0H0.5V20H20.5V0Z" fill="white" fill-opacity="0.01"/>
<path d="M6.58333 10C6.58333 10.5983 6.09831 11.0833 5.5 11.0833C4.90169 11.0833 4.41667 10.5983 4.41667 10C4.41667 9.40169 4.90169 8.91667 5.5 8.91667C6.09831 8.91667 6.58333 9.40169 6.58333 10Z" fill="#67809A" stroke="#67809A" stroke-width="0.333333"/>
<path d="M11.5833 10C11.5833 10.5983 11.0983 11.0833 10.5 11.0833C9.90169 11.0833 9.41667 10.5983 9.41667 10C9.41667 9.40169 9.90169 8.91667 10.5 8.91667C11.0983 8.91667 11.5833 9.40169 11.5833 10Z" fill="#67809A" stroke="#67809A" stroke-width="0.333333"/>
<path d="M16.5833 10C16.5833 10.5983 16.0983 11.0833 15.5 11.0833C14.9017 11.0833 14.4167 10.5983 14.4167 10C14.4167 9.40169 14.9017 8.91667 15.5 8.91667C16.0983 8.91667 16.5833 9.40169 16.5833 10Z" fill="#67809A" stroke="#67809A" stroke-width="0.333333"/>
</g>
<defs>
<clipPath id="clip0_3837_116773">
<rect width="20" height="20" fill="white" transform="translate(0.5)"/>
</clipPath>
</defs>
</svg>
