<svg width="320" height="185" viewBox="0 0 320 185" fill="none" xmlns="http://www.w3.org/2000/svg">
<rect width="320" height="185" fill="#E5E5E5"/>
<rect width="1440" height="1088" transform="translate(-1084 -598)" fill="#F9F9F9"/>
<rect x="-8" y="-8" width="336" height="402" rx="16" fill="white"/>
<rect width="320" height="185" rx="12" fill="#FFF5EE"/>
<path d="M109.947 27.644C111.56 27.644 112.975 27.9593 114.193 28.59C115.425 29.2207 116.371 30.1227 117.031 31.296C117.705 32.4547 118.043 33.804 118.043 35.344C118.043 36.884 117.705 38.2333 117.031 39.392C116.371 40.536 115.425 41.4233 114.193 42.054C112.975 42.6847 111.56 43 109.947 43H104.579V27.644H109.947ZM109.837 40.382C111.45 40.382 112.697 39.942 113.577 39.062C114.457 38.182 114.897 36.9427 114.897 35.344C114.897 33.7453 114.457 32.4987 113.577 31.604C112.697 30.6947 111.45 30.24 109.837 30.24H107.659V40.382H109.837ZM125.76 43.198C124.587 43.198 123.531 42.9413 122.592 42.428C121.653 41.9 120.913 41.1593 120.37 40.206C119.842 39.2527 119.578 38.1527 119.578 36.906C119.578 35.6593 119.849 34.5593 120.392 33.606C120.949 32.6527 121.705 31.9193 122.658 31.406C123.611 30.878 124.675 30.614 125.848 30.614C127.021 30.614 128.085 30.878 129.038 31.406C129.991 31.9193 130.739 32.6527 131.282 33.606C131.839 34.5593 132.118 35.6593 132.118 36.906C132.118 38.1527 131.832 39.2527 131.26 40.206C130.703 41.1593 129.94 41.9 128.972 42.428C128.019 42.9413 126.948 43.198 125.76 43.198ZM125.76 40.514C126.317 40.514 126.838 40.382 127.322 40.118C127.821 39.8393 128.217 39.4287 128.51 38.886C128.803 38.3433 128.95 37.6833 128.95 36.906C128.95 35.7473 128.642 34.86 128.026 34.244C127.425 33.6133 126.684 33.298 125.804 33.298C124.924 33.298 124.183 33.6133 123.582 34.244C122.995 34.86 122.702 35.7473 122.702 36.906C122.702 38.0647 122.988 38.9593 123.56 39.59C124.147 40.206 124.88 40.514 125.76 40.514ZM151.273 30.812L147.709 43H144.387L142.165 34.486L139.943 43H136.599L133.013 30.812H136.137L138.293 40.096L140.625 30.812H143.881L146.169 40.074L148.325 30.812H151.273ZM159.694 30.636C161.146 30.636 162.319 31.098 163.214 32.022C164.109 32.9313 164.556 34.2073 164.556 35.85V43H161.476V36.268C161.476 35.3 161.234 34.5593 160.75 34.046C160.266 33.518 159.606 33.254 158.77 33.254C157.919 33.254 157.245 33.518 156.746 34.046C156.262 34.5593 156.02 35.3 156.02 36.268V43H152.94V30.812H156.02V32.33C156.431 31.802 156.951 31.3913 157.582 31.098C158.227 30.79 158.931 30.636 159.694 30.636ZM170.565 26.72V43H167.485V26.72H170.565ZM179.02 43.198C177.847 43.198 176.791 42.9413 175.852 42.428C174.913 41.9 174.173 41.1593 173.63 40.206C173.102 39.2527 172.838 38.1527 172.838 36.906C172.838 35.6593 173.109 34.5593 173.652 33.606C174.209 32.6527 174.965 31.9193 175.918 31.406C176.871 30.878 177.935 30.614 179.108 30.614C180.281 30.614 181.345 30.878 182.298 31.406C183.251 31.9193 183.999 32.6527 184.542 33.606C185.099 34.5593 185.378 35.6593 185.378 36.906C185.378 38.1527 185.092 39.2527 184.52 40.206C183.963 41.1593 183.2 41.9 182.232 42.428C181.279 42.9413 180.208 43.198 179.02 43.198ZM179.02 40.514C179.577 40.514 180.098 40.382 180.582 40.118C181.081 39.8393 181.477 39.4287 181.77 38.886C182.063 38.3433 182.21 37.6833 182.21 36.906C182.21 35.7473 181.902 34.86 181.286 34.244C180.685 33.6133 179.944 33.298 179.064 33.298C178.184 33.298 177.443 33.6133 176.842 34.244C176.255 34.86 175.962 35.7473 175.962 36.906C175.962 38.0647 176.248 38.9593 176.82 39.59C177.407 40.206 178.14 40.514 179.02 40.514ZM186.845 36.862C186.845 35.63 187.087 34.5373 187.571 33.584C188.07 32.6307 188.737 31.8973 189.573 31.384C190.424 30.8707 191.37 30.614 192.411 30.614C193.32 30.614 194.112 30.7973 194.787 31.164C195.476 31.5307 196.026 31.9927 196.437 32.55V30.812H199.539V43H196.437V41.218C196.041 41.79 195.491 42.2667 194.787 42.648C194.098 43.0147 193.298 43.198 192.389 43.198C191.362 43.198 190.424 42.934 189.573 42.406C188.737 41.878 188.07 41.1373 187.571 40.184C187.087 39.216 186.845 38.1087 186.845 36.862ZM196.437 36.906C196.437 36.158 196.29 35.52 195.997 34.992C195.704 34.4493 195.308 34.0387 194.809 33.76C194.31 33.4667 193.775 33.32 193.203 33.32C192.631 33.32 192.103 33.4593 191.619 33.738C191.135 34.0167 190.739 34.4273 190.431 34.97C190.138 35.498 189.991 36.1287 189.991 36.862C189.991 37.5953 190.138 38.2407 190.431 38.798C190.739 39.3407 191.135 39.7587 191.619 40.052C192.118 40.3453 192.646 40.492 193.203 40.492C193.775 40.492 194.31 40.3527 194.809 40.074C195.308 39.7807 195.704 39.37 195.997 38.842C196.29 38.2993 196.437 37.654 196.437 36.906ZM201.755 36.862C201.755 35.63 201.997 34.5373 202.481 33.584C202.98 32.6307 203.655 31.8973 204.505 31.384C205.356 30.8707 206.302 30.614 207.343 30.614C208.135 30.614 208.891 30.79 209.609 31.142C210.328 31.4793 210.9 31.934 211.325 32.506V26.72H214.449V43H211.325V41.196C210.944 41.7973 210.409 42.2813 209.719 42.648C209.03 43.0147 208.231 43.198 207.321 43.198C206.295 43.198 205.356 42.934 204.505 42.406C203.655 41.878 202.98 41.1373 202.481 40.184C201.997 39.216 201.755 38.1087 201.755 36.862ZM211.347 36.906C211.347 36.158 211.201 35.52 210.907 34.992C210.614 34.4493 210.218 34.0387 209.719 33.76C209.221 33.4667 208.685 33.32 208.113 33.32C207.541 33.32 207.013 33.4593 206.529 33.738C206.045 34.0167 205.649 34.4273 205.341 34.97C205.048 35.498 204.901 36.1287 204.901 36.862C204.901 37.5953 205.048 38.2407 205.341 38.798C205.649 39.3407 206.045 39.7587 206.529 40.052C207.028 40.3453 207.556 40.492 208.113 40.492C208.685 40.492 209.221 40.3527 209.719 40.074C210.218 39.7807 210.614 39.37 210.907 38.842C211.201 38.2993 211.347 37.654 211.347 36.906Z" fill="#012C57"/>
<path d="M105.341 106.074H99.2252L98.2132 109H94.9792L100.501 93.622H104.087L109.609 109H106.353L105.341 106.074ZM104.505 103.61L102.283 97.186L100.061 103.61H104.505ZM114.753 98.572C115.149 98.0147 115.692 97.5527 116.381 97.186C117.085 96.8047 117.885 96.614 118.779 96.614C119.821 96.614 120.759 96.8707 121.595 97.384C122.446 97.8973 123.113 98.6307 123.597 99.584C124.096 100.523 124.345 101.615 124.345 102.862C124.345 104.109 124.096 105.216 123.597 106.184C123.113 107.137 122.446 107.878 121.595 108.406C120.759 108.934 119.821 109.198 118.779 109.198C117.885 109.198 117.093 109.015 116.403 108.648C115.729 108.281 115.179 107.819 114.753 107.262V114.808H111.673V96.812H114.753V98.572ZM121.199 102.862C121.199 102.129 121.045 101.498 120.737 100.97C120.444 100.427 120.048 100.017 119.549 99.738C119.065 99.4593 118.537 99.32 117.965 99.32C117.408 99.32 116.88 99.4667 116.381 99.76C115.897 100.039 115.501 100.449 115.193 100.992C114.9 101.535 114.753 102.173 114.753 102.906C114.753 103.639 114.9 104.277 115.193 104.82C115.501 105.363 115.897 105.781 116.381 106.074C116.88 106.353 117.408 106.492 117.965 106.492C118.537 106.492 119.065 106.345 119.549 106.052C120.048 105.759 120.444 105.341 120.737 104.798C121.045 104.255 121.199 103.61 121.199 102.862ZM129.663 98.572C130.059 98.0147 130.602 97.5527 131.291 97.186C131.995 96.8047 132.795 96.614 133.689 96.614C134.731 96.614 135.669 96.8707 136.505 97.384C137.356 97.8973 138.023 98.6307 138.507 99.584C139.006 100.523 139.255 101.615 139.255 102.862C139.255 104.109 139.006 105.216 138.507 106.184C138.023 107.137 137.356 107.878 136.505 108.406C135.669 108.934 134.731 109.198 133.689 109.198C132.795 109.198 132.003 109.015 131.313 108.648C130.639 108.281 130.089 107.819 129.663 107.262V114.808H126.583V96.812H129.663V98.572ZM136.109 102.862C136.109 102.129 135.955 101.498 135.647 100.97C135.354 100.427 134.958 100.017 134.459 99.738C133.975 99.4593 133.447 99.32 132.875 99.32C132.318 99.32 131.79 99.4667 131.291 99.76C130.807 100.039 130.411 100.449 130.103 100.992C129.81 101.535 129.663 102.173 129.663 102.906C129.663 103.639 129.81 104.277 130.103 104.82C130.411 105.363 130.807 105.781 131.291 106.074C131.79 106.353 132.318 106.492 132.875 106.492C133.447 106.492 133.975 106.345 134.459 106.052C134.958 105.759 135.354 105.341 135.647 104.798C135.955 104.255 136.109 103.61 136.109 102.862ZM144.574 92.72V109H141.494V92.72H144.574ZM149.179 95.36C148.636 95.36 148.181 95.1913 147.815 94.854C147.463 94.502 147.287 94.0693 147.287 93.556C147.287 93.0427 147.463 92.6173 147.815 92.28C148.181 91.928 148.636 91.752 149.179 91.752C149.721 91.752 150.169 91.928 150.521 92.28C150.887 92.6173 151.071 93.0427 151.071 93.556C151.071 94.0693 150.887 94.502 150.521 94.854C150.169 95.1913 149.721 95.36 149.179 95.36ZM150.697 96.812V109H147.617V96.812H150.697ZM152.948 102.906C152.948 101.645 153.204 100.545 153.718 99.606C154.231 98.6527 154.942 97.9193 155.852 97.406C156.761 96.878 157.802 96.614 158.976 96.614C160.486 96.614 161.733 96.9953 162.716 97.758C163.713 98.506 164.38 99.562 164.718 100.926H161.396C161.22 100.398 160.919 99.9873 160.494 99.694C160.083 99.386 159.57 99.232 158.954 99.232C158.074 99.232 157.377 99.5547 156.864 100.2C156.35 100.831 156.094 101.733 156.094 102.906C156.094 104.065 156.35 104.967 156.864 105.612C157.377 106.243 158.074 106.558 158.954 106.558C160.2 106.558 161.014 106.001 161.396 104.886H164.718C164.38 106.206 163.713 107.255 162.716 108.032C161.718 108.809 160.472 109.198 158.976 109.198C157.802 109.198 156.761 108.941 155.852 108.428C154.942 107.9 154.231 107.167 153.718 106.228C153.204 105.275 152.948 104.167 152.948 102.906ZM166.182 102.862C166.182 101.63 166.424 100.537 166.908 99.584C167.407 98.6307 168.074 97.8973 168.91 97.384C169.761 96.8707 170.707 96.614 171.748 96.614C172.657 96.614 173.449 96.7973 174.124 97.164C174.813 97.5307 175.363 97.9927 175.774 98.55V96.812H178.876V109H175.774V107.218C175.378 107.79 174.828 108.267 174.124 108.648C173.435 109.015 172.635 109.198 171.726 109.198C170.699 109.198 169.761 108.934 168.91 108.406C168.074 107.878 167.407 107.137 166.908 106.184C166.424 105.216 166.182 104.109 166.182 102.862ZM175.774 102.906C175.774 102.158 175.627 101.52 175.334 100.992C175.041 100.449 174.645 100.039 174.146 99.76C173.647 99.4667 173.112 99.32 172.54 99.32C171.968 99.32 171.44 99.4593 170.956 99.738C170.472 100.017 170.076 100.427 169.768 100.97C169.475 101.498 169.328 102.129 169.328 102.862C169.328 103.595 169.475 104.241 169.768 104.798C170.076 105.341 170.472 105.759 170.956 106.052C171.455 106.345 171.983 106.492 172.54 106.492C173.112 106.492 173.647 106.353 174.146 106.074C174.645 105.781 175.041 105.37 175.334 104.842C175.627 104.299 175.774 103.654 175.774 102.906ZM185.47 99.342V105.238C185.47 105.649 185.566 105.949 185.756 106.14C185.962 106.316 186.299 106.404 186.768 106.404H188.198V109H186.262C183.666 109 182.368 107.739 182.368 105.216V99.342H180.916V96.812H182.368V93.798H185.47V96.812H188.198V99.342H185.47ZM191.976 95.36C191.433 95.36 190.978 95.1913 190.612 94.854C190.26 94.502 190.084 94.0693 190.084 93.556C190.084 93.0427 190.26 92.6173 190.612 92.28C190.978 91.928 191.433 91.752 191.976 91.752C192.518 91.752 192.966 91.928 193.318 92.28C193.684 92.6173 193.868 93.0427 193.868 93.556C193.868 94.0693 193.684 94.502 193.318 94.854C192.966 95.1913 192.518 95.36 191.976 95.36ZM193.494 96.812V109H190.414V96.812H193.494ZM201.949 109.198C200.775 109.198 199.719 108.941 198.781 108.428C197.842 107.9 197.101 107.159 196.559 106.206C196.031 105.253 195.767 104.153 195.767 102.906C195.767 101.659 196.038 100.559 196.581 99.606C197.138 98.6527 197.893 97.9193 198.847 97.406C199.8 96.878 200.863 96.614 202.037 96.614C203.21 96.614 204.273 96.878 205.227 97.406C206.18 97.9193 206.928 98.6527 207.471 99.606C208.028 100.559 208.307 101.659 208.307 102.906C208.307 104.153 208.021 105.253 207.449 106.206C206.891 107.159 206.129 107.9 205.161 108.428C204.207 108.941 203.137 109.198 201.949 109.198ZM201.949 106.514C202.506 106.514 203.027 106.382 203.511 106.118C204.009 105.839 204.405 105.429 204.699 104.886C204.992 104.343 205.139 103.683 205.139 102.906C205.139 101.747 204.831 100.86 204.215 100.244C203.613 99.6133 202.873 99.298 201.993 99.298C201.113 99.298 200.372 99.6133 199.771 100.244C199.184 100.86 198.891 101.747 198.891 102.906C198.891 104.065 199.177 104.959 199.749 105.59C200.335 106.206 201.069 106.514 201.949 106.514ZM217.32 96.636C218.772 96.636 219.945 97.098 220.84 98.022C221.735 98.9313 222.182 100.207 222.182 101.85V109H219.102V102.268C219.102 101.3 218.86 100.559 218.376 100.046C217.892 99.518 217.232 99.254 216.396 99.254C215.545 99.254 214.871 99.518 214.372 100.046C213.888 100.559 213.646 101.3 213.646 102.268V109H210.566V96.812H213.646V98.33C214.057 97.802 214.577 97.3913 215.208 97.098C215.853 96.79 216.557 96.636 217.32 96.636Z" fill="#012C57"/>
<path d="M99.1956 75.198C98.0223 75.198 96.9663 74.9413 96.0276 74.428C95.089 73.9 94.3483 73.1593 93.8056 72.206C93.2776 71.2527 93.0136 70.1527 93.0136 68.906C93.0136 67.6593 93.285 66.5593 93.8276 65.606C94.385 64.6527 95.1403 63.9193 96.0936 63.406C97.047 62.878 98.1103 62.614 99.2836 62.614C100.457 62.614 101.52 62.878 102.474 63.406C103.427 63.9193 104.175 64.6527 104.718 65.606C105.275 66.5593 105.554 67.6593 105.554 68.906C105.554 70.1527 105.268 71.2527 104.696 72.206C104.138 73.1593 103.376 73.9 102.408 74.428C101.454 74.9413 100.384 75.198 99.1956 75.198ZM99.1956 72.514C99.753 72.514 100.274 72.382 100.758 72.118C101.256 71.8393 101.652 71.4287 101.946 70.886C102.239 70.3433 102.386 69.6833 102.386 68.906C102.386 67.7473 102.078 66.86 101.462 66.244C100.86 65.6133 100.12 65.298 99.2396 65.298C98.3596 65.298 97.619 65.6133 97.0176 66.244C96.431 66.86 96.1376 67.7473 96.1376 68.906C96.1376 70.0647 96.4236 70.9593 96.9956 71.59C97.5823 72.206 98.3156 72.514 99.1956 72.514ZM119.319 62.812V75H116.217V73.46C115.821 73.988 115.3 74.406 114.655 74.714C114.024 75.0073 113.335 75.154 112.587 75.154C111.634 75.154 110.79 74.956 110.057 74.56C109.324 74.1493 108.744 73.5553 108.319 72.778C107.908 71.986 107.703 71.0473 107.703 69.962V62.812H110.783V69.522C110.783 70.49 111.025 71.238 111.509 71.766C111.993 72.2793 112.653 72.536 113.489 72.536C114.34 72.536 115.007 72.2793 115.491 71.766C115.975 71.238 116.217 70.49 116.217 69.522V62.812H119.319ZM125.438 64.704C125.834 64.0587 126.347 63.5527 126.978 63.186C127.623 62.8193 128.357 62.636 129.178 62.636V65.87H128.364C127.396 65.87 126.663 66.0973 126.164 66.552C125.68 67.0067 125.438 67.7987 125.438 68.928V75H122.358V62.812H125.438V64.704Z" fill="#012C57"/>
<rect x="135.398" y="57.7119" width="89" height="32" rx="16" transform="rotate(-6.91251 135.398 57.7119)" fill="#FF865E"/>
<path d="M161.567 62.2517L163.415 77.496L160.357 77.8667L159.155 67.9513L156.273 78.3619L153.958 78.6425L148.65 69.2249L149.852 79.1403L146.795 79.511L144.947 64.2666L148.419 63.8456L154.642 74.5928L158.116 62.67L161.567 62.2517ZM171.835 76.6748C170.67 76.816 169.59 76.6883 168.597 76.2916C167.601 75.8804 166.777 75.2343 166.124 74.3532C165.485 73.4703 165.09 72.4101 164.94 71.1725C164.79 69.9349 164.927 68.8102 165.351 67.7985C165.79 66.7851 166.451 65.9661 167.336 65.3418C168.219 64.7029 169.243 64.3128 170.407 64.1716C171.572 64.0304 172.66 64.1645 173.669 64.5739C174.678 64.9688 175.508 65.6068 176.162 66.4879C176.83 67.3672 177.239 68.4257 177.389 69.6633C177.539 70.9009 177.388 72.0273 176.934 73.0426C176.496 74.056 175.828 74.8831 174.93 75.5238C174.046 76.1481 173.014 76.5318 171.835 76.6748ZM171.511 74.0103C172.065 73.9432 172.566 73.7495 173.014 73.4291C173.476 73.0925 173.82 72.6371 174.046 72.0631C174.271 71.4891 174.338 70.8162 174.244 70.0446C174.105 68.8943 173.692 68.0505 173.006 67.5131C172.334 66.9594 171.56 66.7355 170.687 66.8414C169.813 66.9473 169.116 67.3495 168.595 68.048C168.086 68.7301 167.902 69.6463 168.041 70.7965C168.181 71.9468 168.573 72.8005 169.216 73.3578C169.873 73.8987 170.638 74.1162 171.511 74.0103ZM182.171 64.74C182.493 64.11 182.974 63.5714 183.615 63.1245C184.269 62.6757 185.041 62.3975 185.929 62.2899C186.963 62.1645 187.925 62.3064 188.817 62.7154C189.723 63.1226 190.474 63.7703 191.069 64.6584C191.677 65.5302 192.056 66.585 192.207 67.8226C192.357 69.0602 192.242 70.1895 191.864 71.2104C191.498 72.2151 190.925 73.0307 190.144 73.6572C189.377 74.282 188.477 74.6571 187.444 74.7824C186.541 74.8918 185.726 74.8133 184.999 74.5468C184.286 74.264 183.69 73.8634 183.214 73.345L183.423 75.0704L180.365 75.4411L178.406 59.2794L181.464 58.9087L182.171 64.74ZM189.083 68.2012C188.995 67.4732 188.766 66.8656 188.397 66.3786C188.041 65.8751 187.598 65.5151 187.069 65.2985C186.555 65.0801 186.014 65.0053 185.447 65.0742C184.893 65.1412 184.387 65.3504 183.927 65.7016C183.48 66.0365 183.136 66.4918 182.896 67.0676C182.67 67.6417 182.601 68.2927 182.69 69.0207C182.778 69.7487 183 70.3644 183.357 70.8678C183.728 71.3695 184.171 71.7368 184.687 71.9697C185.216 72.1863 185.756 72.2611 186.31 72.194C186.878 72.1252 187.384 71.916 187.829 71.5666C188.289 71.2154 188.632 70.7528 188.858 70.1787C189.098 69.6029 189.173 68.9438 189.083 68.2012ZM195.076 59.9177C194.537 59.983 194.066 59.8703 193.661 59.5796C193.269 59.2725 193.043 58.8642 192.981 58.3546C192.919 57.845 193.043 57.4015 193.351 57.0243C193.673 56.6307 194.103 56.4013 194.642 56.336C195.181 56.2706 195.646 56.3915 196.038 56.6986C196.442 56.9894 196.675 57.3895 196.737 57.8991C196.799 58.4087 196.669 58.8603 196.347 59.2539C196.039 59.6311 195.615 59.8524 195.076 59.9177ZM196.758 61.1765L198.225 73.2759L195.167 73.6466L193.7 61.5472L196.758 61.1765ZM202.344 56.3773L204.303 72.539L201.246 72.9096L199.286 56.748L202.344 56.3773ZM217.807 64.4973C217.86 64.9341 217.878 65.3308 217.862 65.6873L209.017 66.7596C209.196 67.6244 209.584 68.2717 210.183 68.7014C210.782 69.1311 211.474 69.2983 212.261 69.203C213.396 69.0653 214.145 68.4796 214.508 67.4458L217.805 67.046C217.597 68.2532 217.044 69.2953 216.146 70.1725C215.246 71.0351 214.075 71.5538 212.633 71.7285C211.469 71.8697 210.389 71.742 209.396 71.3454C208.415 70.9324 207.605 70.2845 206.966 69.4017C206.342 68.517 205.955 67.4559 205.805 66.2183C205.653 64.9662 205.774 63.836 206.169 62.8278C206.564 61.8196 207.189 61.0051 208.045 60.3843C208.9 59.7635 209.925 59.3807 211.119 59.236C212.269 59.0965 213.326 59.2196 214.288 59.6052C215.266 59.989 216.057 60.6096 216.664 61.4669C217.283 62.3078 217.664 63.318 217.807 64.4973ZM214.534 64.0076C214.424 63.2232 214.064 62.6315 213.454 62.2327C212.843 61.8193 212.137 61.6611 211.336 61.7582C210.579 61.85 209.966 62.1606 209.499 62.6901C209.044 63.2032 208.808 63.8745 208.79 64.704L214.534 64.0076Z" fill="#F9F9F9"/>
<rect x="256" y="28" width="48" height="48" rx="12" fill="white"/>
<rect x="29" y="133" width="22" height="22" rx="6" fill="white"/>
<rect x="251" y="104" width="26" height="26" rx="7.09091" fill="white"/>
<path d="M29 0H82V23C82 30.732 75.732 37 68 37H43C35.268 37 29 30.732 29 23L29 0Z" fill="white"/>
<rect x="19" y="22" width="32" height="32" rx="8" fill="white"/>
<path fill-rule="evenodd" clip-rule="evenodd" d="M172.576 139.752C172.576 139.796 172.877 140.158 173.31 140.635C173.724 141.091 174.237 141.635 175.899 143.378C178.661 146.275 180.01 147.697 182.586 150.426C183.294 151.177 183.888 151.794 183.904 151.799C183.947 151.81 187.331 148.288 187.318 148.246C187.312 148.227 187.227 148.161 187.13 148.1C185.83 147.277 174.15 140.542 172.871 139.878C172.709 139.794 172.576 139.737 172.576 139.752ZM171.383 140.115C171.345 140.157 171.275 140.268 171.228 140.36C171.147 140.517 171.14 140.556 171.118 140.944C171.051 142.106 171.013 156.376 171.066 160.303C171.098 162.717 171.131 163.282 171.261 163.644C171.321 163.809 171.378 163.87 171.685 164.091L171.907 164.25L177.652 158.304L183.396 152.359L183.005 151.947C182.79 151.72 182.107 151.004 181.488 150.355C180.868 149.707 179.25 148.005 177.891 146.575C174.751 143.269 172.552 140.979 172.096 140.542C171.776 140.235 171.532 140.038 171.473 140.038C171.462 140.038 171.421 140.073 171.383 140.115ZM187.989 148.861C187.898 148.93 187.653 149.157 187.444 149.364C186.799 150.004 184.496 152.385 184.496 152.412C184.496 152.457 187.616 155.67 187.66 155.67C187.769 155.67 188.865 155.081 190.557 154.112C192.085 153.236 192.657 152.884 192.744 152.764C192.918 152.525 193.03 152.162 192.994 151.956C192.948 151.689 192.734 151.392 192.419 151.155C192.279 151.05 191.509 150.592 190.085 149.767C188.458 148.825 188.296 148.735 188.221 148.735C188.185 148.735 188.08 148.792 187.989 148.861ZM183.047 153.914C182.159 154.818 180.142 156.888 177.264 159.848C175.388 161.778 173.58 163.681 173.601 163.704C173.615 163.718 174.735 163.092 176.792 161.922C177.206 161.686 181.16 159.445 181.928 159.01C182.154 158.882 183.118 158.336 184.07 157.796C185.022 157.257 185.992 156.71 186.226 156.581C186.675 156.334 186.787 156.248 186.815 156.133C186.857 155.961 186.765 155.851 185.36 154.398C184.615 153.628 183.993 152.998 183.976 152.998C183.96 152.998 183.542 153.41 183.047 153.914Z" fill="#FF865E"/>
<path fill-rule="evenodd" clip-rule="evenodd" d="M143.84 138.061C143.135 138.192 142.228 138.591 141.51 139.086C140.383 139.864 139.405 141.297 139.069 142.66C138.965 143.081 138.894 143.857 138.929 144.192L138.957 144.465L139.516 144.443C140.124 144.42 140.533 144.321 141.064 144.071C142.276 143.501 143.535 142.002 144.037 140.534C144.278 139.828 144.424 138.832 144.368 138.267C144.337 137.951 144.368 137.963 143.84 138.061ZM143.329 144.78C142.549 144.913 142.102 145.044 140.894 145.497C140.376 145.691 139.778 145.901 139.565 145.965L139.179 146.08L138.849 146.007C138.668 145.967 138.216 145.819 137.844 145.678C136.577 145.199 136.017 145.013 135.578 144.925C133.647 144.538 131.395 145.419 129.96 147.124C128.961 148.31 128.323 149.829 128.075 151.608C127.986 152.25 127.973 154.02 128.054 154.698C128.306 156.832 128.937 158.957 129.876 160.837C130.568 162.222 131.623 163.758 132.522 164.688C133.903 166.116 134.879 166.321 136.764 165.58C138.267 164.99 138.559 164.921 139.543 164.925C140.228 164.928 140.312 164.937 140.753 165.058C141.013 165.13 141.483 165.293 141.797 165.422C142.808 165.837 143.296 165.961 143.926 165.962C145.283 165.965 146.327 165.169 147.811 162.998C148.686 161.719 149.36 160.38 149.839 158.971C149.905 158.776 149.959 158.606 149.959 158.594C149.959 158.582 149.808 158.492 149.623 158.394C148.471 157.785 147.47 156.735 146.929 155.57C146.562 154.778 146.406 154.077 146.372 153.062C146.323 151.634 146.614 150.504 147.301 149.445C147.678 148.865 148.502 148.053 149.175 147.599L149.27 147.535L149.054 147.238C148.11 145.934 146.623 145.079 144.838 144.816C144.45 144.759 143.578 144.738 143.329 144.78Z" fill="#FF865E"/>
</svg>
