<svg width="20" height="20" viewBox="0 0 20 20" fill="none" xmlns="http://www.w3.org/2000/svg">
<path d="M4.16602 15V10V15ZM4.16602 10.8333H2.49935C2.03911 10.8333 1.66602 11.2064 1.66602 11.6667V15C1.66602 15.4602 2.03911 15.8333 2.49935 15.8333H4.16602V10.8333Z" stroke="#012C57" stroke-width="1.66667" stroke-linecap="round" stroke-linejoin="round"/>
<path d="M15.834 10V15V10ZM15.834 10.8333H17.5007C17.9609 10.8333 18.334 11.2064 18.334 11.6667V15C18.334 15.4602 17.9609 15.8333 17.5007 15.8333H15.834V10.8333Z" stroke="#012C57" stroke-width="1.66667" stroke-linecap="round" stroke-linejoin="round"/>
<path d="M4.16602 14.9974V9.9974C4.16602 6.77573 6.77768 4.16406 9.99935 4.16406C13.221 4.16406 15.8327 6.77573 15.8327 9.9974M4.16602 10.8307V15.8307M15.8327 10.8307V15.8307" stroke="#012C57" stroke-width="1.66667" stroke-linecap="round" stroke-linejoin="round"/>
</svg>
