<svg width="438" height="326" viewBox="0 0 438 326" fill="none" xmlns="http://www.w3.org/2000/svg">
<path d="M402.871 188.482L392.736 221.52C390.629 228.391 384.762 233.018 378.158 233.018H320.817C314.213 233.018 308.345 228.391 306.237 221.52L297.902 194.346C296.449 189.611 299.659 184.706 304.211 184.706H310.631C313.656 184.706 316.219 182.267 316.641 178.974L320.388 149.826C321.281 142.866 326.707 137.691 333.109 137.691H384.744C392.547 137.691 398.55 145.266 397.466 153.75L394.255 178.897C393.864 181.966 396.034 184.706 398.858 184.706H400.407C402.182 184.706 403.44 186.627 402.871 188.482Z" fill="#2CA58D"/>
<path d="M353.459 232.129H345.055V294.464H353.459V232.129Z" fill="white"/>
<path fill-rule="evenodd" clip-rule="evenodd" d="M344.451 231.527H354.061V295.066H344.451V231.527ZM345.657 232.73V293.863H352.856V232.73H345.657Z" fill="#2CA58D"/>
<path fill-rule="evenodd" clip-rule="evenodd" d="M328.686 295.458C330.213 294.384 332.284 293.742 334.534 293.742H364.488C366.742 293.742 368.813 294.384 370.34 295.459C371.865 296.532 372.897 298.082 372.897 299.873V302.763H371.45V299.873C371.45 298.677 370.763 297.523 369.506 296.638C368.251 295.755 366.479 295.186 364.488 295.186H334.534C332.548 295.186 330.776 295.755 329.52 296.638C328.261 297.524 327.572 298.678 327.572 299.873V302.763H326.125V299.873C326.125 298.081 327.161 296.531 328.686 295.458Z" fill="#6464C6"/>
<path d="M327.01 314.525C330.266 314.525 332.906 311.892 332.906 308.644C332.906 305.395 330.266 302.762 327.01 302.762C323.755 302.762 321.115 305.395 321.115 308.644C321.115 311.892 323.755 314.525 327.01 314.525Z" fill="white"/>
<path fill-rule="evenodd" clip-rule="evenodd" d="M327.01 303.363C324.087 303.363 321.717 305.727 321.717 308.644C321.717 311.56 324.087 313.924 327.01 313.924C329.933 313.924 332.302 311.56 332.302 308.644C332.302 305.727 329.933 303.363 327.01 303.363ZM320.512 308.644C320.512 305.063 323.421 302.16 327.01 302.16C330.599 302.16 333.508 305.063 333.508 308.644C333.508 312.224 330.599 315.127 327.01 315.127C323.421 315.127 320.512 312.224 320.512 308.644Z" fill="#E3B03D"/>
<path d="M372.069 314.525C375.325 314.525 377.964 311.892 377.964 308.644C377.964 305.395 375.325 302.762 372.069 302.762C368.813 302.762 366.174 305.395 366.174 308.644C366.174 311.892 368.813 314.525 372.069 314.525Z" fill="white"/>
<path fill-rule="evenodd" clip-rule="evenodd" d="M372.066 303.363C369.144 303.363 366.774 305.727 366.774 308.644C366.774 311.56 369.144 313.924 372.066 313.924C374.989 313.924 377.359 311.56 377.359 308.644C377.359 305.727 374.989 303.363 372.066 303.363ZM365.568 308.644C365.568 305.063 368.478 302.16 372.066 302.16C375.655 302.16 378.565 305.063 378.565 308.644C378.565 312.224 375.655 315.127 372.066 315.127C368.478 315.127 365.568 312.224 365.568 308.644Z" fill="#E3B03D"/>
<path d="M275.385 285.371C274.63 288.197 271.891 297.858 272.874 301.324C273.856 304.79 276.61 307.34 275.851 310.874C275.036 314.637 252.913 312.257 252.234 312.106C251.554 311.955 263.984 305.07 264.129 299.947C264.274 294.825 262.636 285.371 262.636 285.371H275.385Z" fill="#D28E46"/>
<path d="M248.696 314.801H276.045C276.695 314.801 277.223 314.275 277.223 313.625V313.624C277.223 312.975 276.695 312.448 276.045 312.448H248.696C248.046 312.448 247.518 312.975 247.518 313.624V313.625C247.518 314.275 248.046 314.801 248.696 314.801Z" fill="#94BCD3"/>
<path d="M268.28 312.601C268.28 312.601 265.405 309.106 261.356 308.079C256.918 306.952 254.765 307.552 252.372 308.76C250.053 309.929 248.756 312.452 248.756 312.452L268.28 312.601Z" fill="#CFE0F9"/>
<path d="M268.379 312.546C268.379 312.546 268.134 304.354 273.563 303.289C273.563 303.289 278.778 307.932 275.893 312.546H268.379Z" fill="#CFE0F9"/>
<path d="M275.386 285.371H262.639C262.639 285.371 262.953 287.189 263.29 289.66C267.928 290.095 272.694 288.561 274.726 287.793C274.995 286.782 275.223 285.938 275.386 285.371Z" fill="#C97C2D"/>
<path d="M305.392 229.733C298.35 229.722 291.13 229.664 281.603 229.52C282.771 237.704 283.987 247.873 283.801 256.213C283.625 264.072 282.009 265.132 282.074 268.442C282.185 273.763 278.631 275.527 279.78 279.334C281.712 285.707 275.38 285.374 275.38 285.374C275.38 285.374 267.091 286.897 260.807 285.374L254.387 219.532C252.541 213.413 260.64 206.038 268.639 202.462C282.409 196.308 334.658 172.783 341.504 194.288C343.319 200.009 337.476 229.789 305.392 229.733Z" fill="#C5D7F9"/>
<path d="M314.217 285.367C313.463 288.193 310.725 297.854 311.706 301.32C312.687 304.786 315.442 307.336 314.685 310.87C313.87 314.634 291.747 312.253 291.068 312.102C290.388 311.951 302.816 305.066 302.963 299.943C303.109 294.821 301.472 285.367 301.472 285.367H314.217Z" fill="#D28E46"/>
<path d="M287.538 314.801H314.886C315.537 314.801 316.064 314.275 316.064 313.625V313.624C316.064 312.975 315.537 312.448 314.886 312.448H287.538C286.888 312.448 286.36 312.975 286.36 313.624V313.625C286.36 314.275 286.888 314.801 287.538 314.801Z" fill="#94BCD3"/>
<path d="M307.121 312.601C307.121 312.601 304.245 309.106 300.196 308.079C295.759 306.952 293.605 307.552 291.211 308.76C288.893 309.929 287.596 312.452 287.596 312.452L307.121 312.601Z" fill="#CFE0F9"/>
<path d="M307.22 312.546C307.22 312.546 306.974 304.354 312.404 303.289C312.404 303.289 317.618 307.932 314.734 312.546H307.22Z" fill="#CFE0F9"/>
<path d="M314.219 285.367H301.479C301.479 285.367 301.795 287.185 302.13 289.656C306.769 290.092 311.535 288.557 313.567 287.79C313.839 286.778 314.067 285.935 314.219 285.367Z" fill="#C97C2D"/>
<path d="M339.407 229.732C332.365 229.721 325.145 229.662 315.618 229.519C316.786 237.703 318.002 247.872 317.816 256.212C317.64 264.071 318.432 265.131 318.502 268.441C318.613 273.762 317.47 275.526 318.619 279.333C320.552 285.706 314.22 285.373 314.22 285.373C314.22 285.373 305.931 286.896 299.646 285.373L288.403 219.531C286.559 213.412 289.832 206.037 297.831 202.461C311.603 196.307 362.131 167.478 370.454 199.822C371.942 205.629 371.492 229.788 339.407 229.732Z" fill="#CFE0F9"/>
<path d="M319.503 115.468C320.378 120.932 324.577 123.877 309.172 161.74C303.329 176.105 291.486 169.251 292.358 161.878C293.23 154.505 302.918 125.662 306.246 118.944C309.853 111.658 318.774 110.916 319.503 115.468Z" fill="#D1E2FB"/>
<path d="M303.687 167.891C292.536 173.44 249.079 170.227 248.954 167.441C248.809 164.19 287.32 156.89 295.519 155.996C305.3 154.929 310.335 164.585 303.687 167.891Z" fill="#FFCE98"/>
<path d="M256.627 165.644C256.348 164.646 248.597 164.781 246.053 165.482C243.51 166.182 240.024 169.127 239.536 169.775C239.047 170.424 237.906 173.809 237.906 173.809C237.906 173.809 238.903 175.067 240.336 173.134C241.768 171.201 245.411 169.154 246.29 169.741C248.263 171.059 243.718 172.045 243.169 172.83C242.62 173.615 242.858 174.13 242.858 174.13C242.858 174.13 247.57 173.192 248.302 173.142C249.034 173.092 251.51 172.076 252.962 170.903C254.414 169.731 257.037 167.115 256.627 165.644Z" fill="#E38E32"/>
<path d="M369.924 205.167C376.931 213.385 362.039 176.318 359.242 166.962C357.919 162.537 360.938 145.385 364.159 131.417C367.418 117.252 362.29 112.164 353.475 109.971C343.643 107.522 330.931 108.166 327.928 108.564C318.433 109.819 316.136 110.936 311.764 113.279C309.592 114.443 309.706 137.015 309.07 142.955C308.435 148.895 311.583 152.495 315.296 154.945C316.357 155.645 318.583 159.355 318.531 168.113C318.479 176.871 317.204 181.577 313.678 186.503C313.678 186.503 349.972 181.782 369.924 205.167Z" fill="#E7F0FD"/>
<path fill-rule="evenodd" clip-rule="evenodd" d="M328.626 134.644L350.282 109.09L351.387 110.022L328.145 137.447L317.801 110.277L319.153 109.765L328.626 134.644Z" fill="white"/>
<path d="M361.685 113.915C365.758 117.677 370.955 125.344 382.243 164.625C386.524 179.526 376.752 179.094 372.88 172.753C369.009 166.413 352.661 137.551 351.069 130.229C348.299 117.48 358.294 110.777 361.685 113.915Z" fill="#D1E2FB"/>
<path d="M380.294 176.8C368.725 182.607 321.448 176.392 321.309 173.498C321.146 170.115 361.64 167.045 370.156 166.083C380.31 164.937 387.188 173.345 380.294 176.8Z" fill="#FFCE98"/>
<path d="M327.75 174.079C327.809 175.114 320.426 177.475 317.79 177.621C315.153 177.767 310.905 176.104 310.231 175.649C309.556 175.194 307.381 172.354 307.381 172.354C307.381 172.354 307.92 170.843 309.898 172.214C311.876 173.584 315.987 174.353 316.629 173.514C318.071 171.632 313.454 172.159 312.678 171.59C311.902 171.021 311.966 170.452 311.966 170.452C311.966 170.452 316.729 169.827 317.438 169.639C318.146 169.45 320.819 169.621 322.572 170.263C324.325 170.905 327.665 172.554 327.75 174.079Z" fill="#E38E32"/>
<path d="M341.18 89.5585C345.041 88.7993 350.213 81.6916 348.44 75.5984C346.668 69.5052 337.999 62.3292 329.132 65.1791C320.264 68.029 314.824 72.2803 315.878 81.0056C316.716 87.9426 338.476 110.594 353.472 109.734C359.501 109.389 365.582 96.741 357.708 92.0231C349.835 87.3053 341.18 89.5585 341.18 89.5585Z" fill="#FF865E"/>
<path fill-rule="evenodd" clip-rule="evenodd" d="M348.318 87.4661C352.357 87.2223 357.475 87.901 361.591 91.6677L360.939 92.377C357.091 88.8555 352.277 88.1913 348.376 88.4268C346.429 88.5443 344.724 88.8854 343.506 89.1975C342.897 89.3534 342.412 89.5016 342.08 89.6103C341.914 89.6647 341.786 89.7091 341.701 89.7396C341.658 89.7548 341.627 89.7666 341.606 89.7744C341.595 89.7783 341.588 89.7812 341.583 89.783L341.578 89.785L341.577 89.7853C341.577 89.7853 341.577 89.7853 341.402 89.3366C341.228 88.8879 341.228 88.8879 341.229 88.8878L341.229 88.8875L341.232 88.8866L341.239 88.8836C341.246 88.8811 341.256 88.8775 341.268 88.8729C341.293 88.8637 341.328 88.8505 341.375 88.8338C341.468 88.8005 341.604 88.7531 341.779 88.6959C342.129 88.5814 342.635 88.427 343.266 88.2653C344.528 87.9421 346.295 87.5882 348.318 87.4661Z" fill="#E5B21A"/>
<path d="M339.964 88.8086C339.964 88.8086 338.698 103.177 346.275 108.792L330.087 127.602L323.031 109.509C323.031 109.509 330.934 108.046 327.673 88.8086H339.964Z" fill="#FFCE98"/>
<path d="M339.887 91.5889C339.861 91.849 339.843 92.0051 339.843 92.0051C339.843 94.6485 334.445 104.778 326.959 105.621C328.316 102.694 329.167 97.6187 327.673 88.8008H339.965C339.965 88.8008 339.869 89.8916 339.887 91.5889Z" fill="#F7AC5B"/>
<path d="M339.869 89.9969C339.854 90.1432 339.844 90.2261 339.844 90.2261C340.074 92.1965 332.186 100.07 325.959 100.793C323.162 101.118 319.003 93.0646 318.318 90.3366C317.321 86.3601 317.266 82.4372 317.215 81.0098C317.134 78.6964 317.28 72.9023 323.961 72.9023C330.684 72.9023 334.464 87.6721 339.421 84.6872C339.512 84.4824 340.361 82.7461 342.517 84.1199C344.107 85.1376 341.704 88.8914 339.869 89.9969Z" fill="#FFCE98"/>
<path fill-rule="evenodd" clip-rule="evenodd" d="M323.747 84.3779C323.945 84.4031 324.085 84.5839 324.06 84.7816L323.412 89.854L324.621 91.3021C324.749 91.4552 324.728 91.6828 324.575 91.8104C324.421 91.938 324.193 91.9173 324.065 91.7641L322.756 90.1953C322.691 90.1183 322.662 90.0181 322.675 89.9186L323.343 84.6903C323.368 84.4926 323.549 84.3527 323.747 84.3779Z" fill="#40465C"/>
<path fill-rule="evenodd" clip-rule="evenodd" d="M318.552 82.7343C316.625 82.7343 315.063 84.2926 315.063 86.215C315.063 88.1373 316.625 89.6957 318.552 89.6957C320.478 89.6957 322.04 88.1373 322.04 86.215C322.04 84.2926 320.478 82.7343 318.552 82.7343ZM313.857 86.215C313.857 83.6282 315.959 81.5312 318.552 81.5312C321.144 81.5312 323.246 83.6282 323.246 86.215C323.246 88.8017 321.144 90.8987 318.552 90.8987C315.959 90.8987 313.857 88.8017 313.857 86.215Z" fill="#2CA58D"/>
<path fill-rule="evenodd" clip-rule="evenodd" d="M329.464 82.7343C327.537 82.7343 325.975 84.2926 325.975 86.215C325.975 88.1373 327.537 89.6957 329.464 89.6957C331.391 89.6957 332.952 88.1373 332.952 86.215C332.952 84.2926 331.391 82.7343 329.464 82.7343ZM324.77 86.215C324.77 83.6282 326.871 81.5312 329.464 81.5312C332.056 81.5312 334.158 83.6282 334.158 86.215C334.158 88.8017 332.056 90.8987 329.464 90.8987C326.871 90.8987 324.77 88.8017 324.77 86.215Z" fill="#2CA58D"/>
<path fill-rule="evenodd" clip-rule="evenodd" d="M325.371 86.8163H322.643V85.6133H325.371V86.8163Z" fill="#2CA58D"/>
<path fill-rule="evenodd" clip-rule="evenodd" d="M333.875 86.5052C333.875 86.5052 333.875 86.5051 333.558 85.9931C333.242 85.4811 333.242 85.481 333.242 85.4809L333.244 85.4798L333.248 85.4771L333.264 85.4674C333.278 85.459 333.298 85.447 333.324 85.4317C333.375 85.401 333.45 85.357 333.546 85.302C333.737 85.1922 334.012 85.0387 334.351 84.8617C335.026 84.5086 335.961 84.0586 336.991 83.6767C338.017 83.2966 339.164 82.9738 340.257 82.8939C341.344 82.8145 342.458 82.9703 343.33 83.6406L342.594 84.5934C342.053 84.1778 341.286 84.0251 340.345 84.0938C339.411 84.162 338.383 84.444 337.411 84.8044C336.443 85.1631 335.557 85.5893 334.91 85.9273C334.588 86.096 334.327 86.2417 334.147 86.3448C334.058 86.3963 333.988 86.4371 333.942 86.4646C333.919 86.4784 333.901 86.4889 333.89 86.4957L333.878 86.5033L333.875 86.5049L333.875 86.5052Z" fill="#2CA58D"/>
<path d="M320.19 87.169C320.731 87.169 321.169 86.7315 321.169 86.1919C321.169 85.6523 320.731 85.2148 320.19 85.2148C319.649 85.2148 319.211 85.6523 319.211 86.1919C319.211 86.7315 319.649 87.169 320.19 87.169Z" fill="#40465C"/>
<path d="M327.973 87.169C328.514 87.169 328.952 86.7315 328.952 86.1919C328.952 85.6523 328.514 85.2148 327.973 85.2148C327.432 85.2148 326.994 85.6523 326.994 86.1919C326.994 86.7315 327.432 87.169 327.973 87.169Z" fill="#40465C"/>
<path fill-rule="evenodd" clip-rule="evenodd" d="M328.365 92.4982C328.527 92.6149 328.563 92.8406 328.446 93.0021C327.632 94.125 326.624 94.5872 325.817 94.7636C325.416 94.8513 325.066 94.8684 324.814 94.8634C324.688 94.8608 324.586 94.8528 324.514 94.845C324.478 94.8411 324.449 94.8373 324.428 94.8343C324.418 94.8328 324.41 94.8315 324.403 94.8305L324.396 94.8292L324.393 94.8287L324.392 94.8286L324.392 94.8285C324.391 94.8284 324.391 94.8284 324.456 94.4732L324.391 94.8284C324.195 94.793 324.064 94.6052 324.1 94.4091C324.135 94.2133 324.322 94.0832 324.519 94.1179L324.52 94.1181C324.522 94.1185 324.527 94.1192 324.533 94.12C324.545 94.1218 324.565 94.1245 324.591 94.1273C324.645 94.1331 324.726 94.1396 324.829 94.1417C325.035 94.1458 325.327 94.1318 325.662 94.0585C326.327 93.9131 327.168 93.534 327.86 92.5792C327.977 92.4176 328.203 92.3814 328.365 92.4982Z" fill="#40465C"/>
<path d="M301.59 153.314H230.014C228.844 153.314 227.703 152.952 226.748 152.278C225.793 151.604 225.07 150.651 224.68 149.551L210.056 108.34C209.846 107.749 209.781 107.116 209.867 106.495C209.953 105.874 210.187 105.282 210.55 104.77C210.913 104.258 211.393 103.84 211.952 103.552C212.51 103.264 213.129 103.113 213.758 103.113H285.92C286.919 103.113 287.893 103.422 288.709 103.997C289.524 104.573 290.141 105.386 290.474 106.326L305.302 148.086C305.512 148.678 305.576 149.311 305.49 149.933C305.403 150.555 305.168 151.148 304.804 151.66C304.44 152.173 303.959 152.59 303.399 152.878C302.84 153.166 302.219 153.316 301.59 153.314Z" fill="white"/>
<path d="M299.363 155.537H227.786C226.616 155.537 225.475 155.175 224.519 154.501C223.564 153.828 222.841 152.875 222.451 151.775L207.827 110.564C207.617 109.973 207.552 109.34 207.639 108.719C207.725 108.097 207.959 107.506 208.322 106.993C208.685 106.481 209.166 106.063 209.724 105.775C210.282 105.486 210.902 105.336 211.531 105.336H283.696C284.696 105.335 285.672 105.643 286.489 106.219C287.306 106.794 287.924 107.608 288.258 108.548L303.076 150.31C303.286 150.902 303.351 151.536 303.264 152.158C303.178 152.78 302.943 153.372 302.578 153.885C302.214 154.397 301.732 154.815 301.173 155.102C300.613 155.39 299.992 155.539 299.363 155.537Z" fill="#D0EFFF"/>
<path d="M264.25 164.48H242.973L249.652 136.266H270.93L264.25 164.48Z" fill="white"/>
<path fill-rule="evenodd" clip-rule="evenodd" d="M249.179 135.664H271.696L264.731 165.082H242.215L249.179 135.664ZM250.133 136.867L243.739 163.879H263.777L270.172 136.867H250.133Z" fill="#96BED5"/>
<path d="M269.54 88.1047C271.779 88.1047 273.324 85.9246 273.324 83.6323V70.8005C273.324 70.2081 273.207 69.6215 272.98 69.0741C272.753 68.5268 272.42 68.0295 272 67.6105C271.58 67.1916 271.082 66.8592 270.534 66.6325C269.985 66.4058 269.397 66.2891 268.804 66.2891H239.539C238.945 66.2888 238.357 66.4054 237.809 66.632C237.26 66.8587 236.761 67.191 236.341 67.6099C235.922 68.0289 235.588 68.5263 235.361 69.0738C235.134 69.6212 235.017 70.208 235.018 70.8005V83.6323C235.018 84.2247 235.135 84.8113 235.362 85.3585C235.589 85.9058 235.922 86.403 236.342 86.8218C236.762 87.2406 237.26 87.5727 237.809 87.7993C238.358 88.0258 238.945 88.1423 239.539 88.1421H256.697C260.898 88.1421 263.161 94.884 263.161 94.884C263.161 94.884 264.591 88.1047 269.54 88.1047Z" fill="white"/>
<path fill-rule="evenodd" clip-rule="evenodd" d="M239.539 65.6875C239.539 65.6875 239.539 65.6875 239.539 65.6875L268.803 65.6875C269.476 65.6875 270.142 65.8198 270.764 66.0768C271.385 66.3337 271.95 66.7104 272.426 67.1852C272.902 67.66 273.279 68.2237 273.536 68.8441C273.794 69.4643 273.926 70.1291 273.926 70.8004C273.926 70.8005 273.926 70.8006 273.926 70.8006V83.6323C273.926 86.1239 272.23 88.7062 269.539 88.7062C267.388 88.7062 265.952 90.17 265.017 91.794C264.555 92.5963 264.236 93.4039 264.033 94.0142C263.932 94.3183 263.86 94.5707 263.814 94.7454C263.792 94.8327 263.775 94.9004 263.764 94.9453C263.759 94.9678 263.755 94.9845 263.753 94.995L263.751 95.0062L263.75 95.0079L263.75 95.0082L263.75 95.0084L263.293 97.1738L262.589 95.0753L262.589 95.075L262.588 95.0726L262.584 95.0608C262.581 95.0522 262.576 95.0401 262.571 95.0244C262.569 95.0198 262.568 95.015 262.566 95.0098C262.549 94.9641 262.525 94.8956 262.491 94.8076C262.424 94.6315 262.323 94.3776 262.189 94.0721C261.92 93.4594 261.52 92.6472 260.997 91.8393C259.921 90.176 258.462 88.7436 256.696 88.7436H239.539C239.539 88.7436 239.539 88.7436 239.539 88.7436C238.866 88.7438 238.199 88.6118 237.578 88.355C236.956 88.0983 236.391 87.7218 235.915 87.2472C235.439 86.7725 235.062 86.209 234.804 85.5887C234.547 84.9685 234.414 84.3037 234.414 83.6323L234.414 70.8006C234.414 70.8006 234.414 70.8007 234.414 70.8006C234.414 70.8006 234.414 70.8004 234.414 70.8004C234.414 70.129 234.546 69.464 234.804 68.8436C235.061 68.2232 235.439 67.6594 235.915 67.1846C236.39 66.7097 236.955 66.3331 237.577 66.0762C238.199 65.8194 238.866 65.6873 239.539 65.6875ZM263.075 93.1106C263.29 92.5382 263.584 91.8679 263.971 91.1946C264.988 89.4289 266.742 87.5031 269.539 87.5031C271.326 87.5031 272.72 85.7252 272.72 83.6323V70.8002C272.72 70.2868 272.619 69.7785 272.422 69.3041C272.225 68.8298 271.937 68.3988 271.573 68.0357C271.209 67.6727 270.778 67.3847 270.302 67.1882C269.827 66.9917 269.317 66.8905 268.803 66.8905L239.538 66.8905C239.024 66.8904 238.514 66.9914 238.039 67.1878C237.563 67.3842 237.131 67.6722 236.767 68.0352C236.403 68.3983 236.115 68.8294 235.918 69.3038C235.721 69.7782 235.62 70.2867 235.62 70.8002V83.6323C235.62 84.1456 235.721 84.654 235.918 85.1282C236.115 85.6025 236.404 86.0334 236.768 86.3963C237.132 86.7593 237.564 87.0471 238.039 87.2434C238.514 87.4398 239.024 87.5407 239.538 87.5405H256.696C259.132 87.5405 260.905 89.479 262.01 91.1867C262.448 91.8639 262.804 92.5385 263.075 93.1106Z" fill="#E5B21A"/>
<path d="M245.801 78.7865C246.734 78.7865 247.489 78.0324 247.489 77.1022C247.489 76.172 246.734 75.418 245.801 75.418C244.869 75.418 244.113 76.172 244.113 77.1022C244.113 78.0324 244.869 78.7865 245.801 78.7865Z" fill="white"/>
<path fill-rule="evenodd" clip-rule="evenodd" d="M245.801 76.0194C245.201 76.0194 244.716 76.5042 244.716 77.1022C244.716 77.7002 245.201 78.1849 245.801 78.1849C246.4 78.1849 246.886 77.7002 246.886 77.1022C246.886 76.5042 246.4 76.0194 245.801 76.0194ZM243.51 77.1022C243.51 75.8398 244.535 74.8164 245.801 74.8164C247.066 74.8164 248.092 75.8398 248.092 77.1022C248.092 78.3646 247.066 79.3879 245.801 79.3879C244.535 79.3879 243.51 78.3646 243.51 77.1022Z" fill="#E5B21A"/>
<path d="M254.17 78.8998C255.103 78.8998 255.859 78.1457 255.859 77.2155C255.859 76.2853 255.103 75.5312 254.17 75.5312C253.238 75.5312 252.482 76.2853 252.482 77.2155C252.482 78.1457 253.238 78.8998 254.17 78.8998Z" fill="white"/>
<path fill-rule="evenodd" clip-rule="evenodd" d="M254.17 76.1327C253.571 76.1327 253.085 76.6175 253.085 77.2155C253.085 77.8134 253.571 78.2982 254.17 78.2982C254.769 78.2982 255.255 77.8134 255.255 77.2155C255.255 76.6175 254.769 76.1327 254.17 76.1327ZM251.879 77.2155C251.879 75.9531 252.905 74.9297 254.17 74.9297C255.435 74.9297 256.461 75.9531 256.461 77.2155C256.461 78.4779 255.435 79.5012 254.17 79.5012C252.905 79.5012 251.879 78.4779 251.879 77.2155Z" fill="#E5B21A"/>
<path d="M262.536 78.8998C263.468 78.8998 264.224 78.1457 264.224 77.2155C264.224 76.2853 263.468 75.5312 262.536 75.5312C261.603 75.5312 260.848 76.2853 260.848 77.2155C260.848 78.1457 261.603 78.8998 262.536 78.8998Z" fill="white"/>
<path fill-rule="evenodd" clip-rule="evenodd" d="M262.535 76.1327C261.936 76.1327 261.45 76.6175 261.45 77.2155C261.45 77.8134 261.936 78.2982 262.535 78.2982C263.134 78.2982 263.62 77.8134 263.62 77.2155C263.62 76.6175 263.134 76.1327 262.535 76.1327ZM260.244 77.2155C260.244 75.9531 261.27 74.9297 262.535 74.9297C263.8 74.9297 264.826 75.9531 264.826 77.2155C264.826 78.4779 263.8 79.5012 262.535 79.5012C261.27 79.5012 260.244 78.4779 260.244 77.2155Z" fill="#E5B21A"/>
<path d="M150.455 312.859V166.266H346.244V326.002" fill="white"/>
<path fill-rule="evenodd" clip-rule="evenodd" d="M149.852 180.782C149.852 172.43 156.622 165.66 164.973 165.66H331.727C340.078 165.66 346.848 172.43 346.848 180.782V325.395C346.848 325.728 346.578 325.998 346.244 325.998C345.911 325.998 345.641 325.728 345.641 325.395V181.986C345.641 173.635 338.871 166.865 330.519 166.865H166.18C157.829 166.865 151.059 173.635 151.059 181.986V312.252C151.059 312.586 150.789 312.856 150.455 312.856C150.122 312.856 149.852 312.586 149.852 312.252V180.782Z" fill="#2CA58D"/>
<path d="M206.064 71.0078H152.08V81.4125H206.064V71.0078Z" fill="white"/>
<path fill-rule="evenodd" clip-rule="evenodd" d="M151.518 70.4492H206.624V81.974H151.518V70.4492ZM152.64 71.5693V80.8539H205.502V71.5693H152.64Z" fill="#E5B21A"/>
<path d="M215.055 66.2891H160.531V70.3631H215.055V66.2891Z" fill="#2CA58D"/>
<path d="M209.965 60.2617H155.441V65.6039H209.965V60.2617Z" fill="white"/>
<path fill-rule="evenodd" clip-rule="evenodd" d="M154.881 59.7031H210.527V66.1654H154.881V59.7031ZM156.004 60.8233V65.0453H209.404V60.8233H156.004Z" fill="#96BED5"/>
<path d="M200.269 53.4922H152.172V59.5627H200.269V53.4922Z" fill="#E7F0FD"/>
<path d="M437.18 44.3203H335.745L315.764 15.2897H222.516V7.64062H319.701L339.682 36.6696H437.18V44.3203Z" fill="white"/>
<path fill-rule="evenodd" clip-rule="evenodd" d="M0 52.9453H98.0417L118.023 81.9743H215.787V90.7451H113.496L93.5141 61.7145H0V52.9453ZM1.12267 54.0654V60.5944H94.1051L114.087 89.625H214.664V83.0944H117.432L97.4508 54.0654H1.12267Z" fill="#96BED5"/>
<path d="M115.791 66.0781H143.402V68.2696C143.402 71.9225 141.947 75.4257 139.358 78.0087C136.769 80.5917 133.258 82.0428 129.597 82.0428C125.936 82.0428 122.425 80.5917 119.836 78.0087C117.247 75.4257 115.793 71.9225 115.793 68.2696V66.0781H115.791Z" fill="#D1E2FB"/>
<path d="M120.17 66.0772C120.17 66.0772 114.185 70.943 110.772 66.9535C108.298 64.0629 118.092 64.0597 118.092 64.0597C118.092 64.0597 112.927 59.9336 114.565 59.1825C118.589 57.3568 120.952 63.4956 120.952 63.4956C120.952 63.4956 115.412 53.1673 120.212 51.392C124.159 49.9289 124.159 60.5741 124.159 60.5741C124.159 60.5741 124.995 56.2611 127.227 56.5391C129.459 56.8171 127.854 61.4163 127.854 61.4163C127.854 61.4163 129.81 60.0945 129.945 63.0859C129.945 63.0859 130.323 51.7058 135.105 52.7901C139.079 53.694 133.781 61.4862 133.781 61.4862C133.781 61.4862 136.849 57.6592 139.567 58.8427C142.284 60.0263 137.122 63.572 137.122 63.572C137.122 63.572 144.512 56.6854 147.189 58.5322C149.224 59.9401 144.052 63.385 144.052 63.385C144.052 63.385 147.748 62.3592 148.584 64.167C149.42 65.9748 143.397 66.074 143.397 66.074L120.17 66.0772Z" fill="#91882A"/>
<path d="M123.311 66.0766C123.311 66.0766 123.524 56.2637 127.221 56.545C130.918 56.8262 125.755 66.0766 125.755 66.0766H123.311Z" fill="#CBC253"/>
<path d="M123.309 66.0755C123.309 66.0755 119.598 56.8088 114.563 59.1873C109.647 61.5039 120.225 66.0755 120.225 66.0755H123.309Z" fill="#CBC253"/>
<path d="M130.947 66.0757C130.947 66.0757 134.279 57.7325 139.567 58.5259C144.854 59.3192 133.049 66.0757 133.049 66.0757H130.947Z" fill="#CBC253"/>
<path d="M136.385 66.078C136.385 66.078 146.727 60.8757 148.589 64.0149C150.452 67.1542 136.385 66.078 136.385 66.078Z" fill="#CBC253"/>
<path d="M27.7072 0.558594H13.541V53.502H27.7072V0.558594Z" fill="white"/>
<path fill-rule="evenodd" clip-rule="evenodd" d="M12.9785 0H28.2673V54.0636H12.9785V0ZM14.1012 1.12013V52.9435H27.1447V1.12013H14.1012Z" fill="#96BED5"/>
<path d="M23.8767 18.75H17.3672V20.4196H23.8767V18.75Z" fill="#96BED5"/>
<path d="M23.8767 23.2188H17.3672V24.8884H23.8767V23.2188Z" fill="#96BED5"/>
<path d="M23.8767 27.6836H17.3672V29.3532H23.8767V27.6836Z" fill="#96BED5"/>
<path d="M23.8767 32.1562H17.3672V33.8259H23.8767V32.1562Z" fill="#96BED5"/>
<path d="M20.6243 47.5506C22.3908 47.5506 23.8229 46.1218 23.8229 44.3593C23.8229 42.5968 22.3908 41.168 20.6243 41.168C18.8578 41.168 17.4258 42.5968 17.4258 44.3593C17.4258 46.1218 18.8578 47.5506 20.6243 47.5506Z" fill="#96BED5"/>
<path d="M43.1154 0.558594H28.9492V53.502H43.1154V0.558594Z" fill="white"/>
<path fill-rule="evenodd" clip-rule="evenodd" d="M28.3867 0H43.6755V54.0636H28.3867V0ZM29.5094 1.12013V52.9435H42.5529V1.12013H29.5094Z" fill="#E5B21A"/>
<path d="M39.2869 18.75H32.7773V20.4196H39.2869V18.75Z" fill="#E5B21A"/>
<path d="M39.2869 23.2188H32.7773V24.8884H39.2869V23.2188Z" fill="#E5B21A"/>
<path d="M39.2869 27.6836H32.7773V29.3532H39.2869V27.6836Z" fill="#E5B21A"/>
<path d="M39.2869 32.1562H32.7773V33.8259H39.2869V32.1562Z" fill="#E5B21A"/>
<path d="M36.0325 47.5506C37.799 47.5506 39.2311 46.1218 39.2311 44.3593C39.2311 42.5968 37.799 41.168 36.0325 41.168C34.266 41.168 32.834 42.5968 32.834 44.3593C32.834 46.1218 34.266 47.5506 36.0325 47.5506Z" fill="#E5B21A"/>
<path d="M58.5275 0.558594H44.3613V53.502H58.5275V0.558594Z" fill="#E7F0FD"/>
<path fill-rule="evenodd" clip-rule="evenodd" d="M43.7988 0H59.0876V54.0636H43.7988V0ZM44.9215 1.12013V52.9435H57.965V1.12013H44.9215Z" fill="#96BED5"/>
<path d="M54.697 18.5273H48.1875V20.197H54.697V18.5273Z" fill="white"/>
<path d="M54.697 22.9922H48.1875V24.6618H54.697V22.9922Z" fill="white"/>
<path d="M54.697 27.4609H48.1875V29.1306H54.697V27.4609Z" fill="white"/>
<path d="M54.697 31.9297H48.1875V33.5993H54.697V31.9297Z" fill="white"/>
<path d="M51.4446 47.3279C53.2111 47.3279 54.6432 45.8991 54.6432 44.1366C54.6432 42.3741 53.2111 40.9453 51.4446 40.9453C49.6781 40.9453 48.2461 42.3741 48.2461 44.1366C48.2461 45.8991 49.6781 47.3279 51.4446 47.3279Z" fill="white"/>
<path d="M73.9357 0.558594H59.7695V53.502H73.9357V0.558594Z" fill="white"/>
<path fill-rule="evenodd" clip-rule="evenodd" d="M59.207 0H74.4959V54.0636H59.207V0ZM60.3297 1.12013V52.9435H73.3732V1.12013H60.3297Z" fill="#2CA58D"/>
<path d="M70.1072 18.75H63.5977V20.4196H70.1072V18.75Z" fill="#2CA58D"/>
<path d="M70.1072 23.2188H63.5977V24.8884H70.1072V23.2188Z" fill="#2CA58D"/>
<path d="M70.1072 27.6836H63.5977V29.3532H70.1072V27.6836Z" fill="#2CA58D"/>
<path d="M70.1072 32.1562H63.5977V33.8259H70.1072V32.1562Z" fill="#2CA58D"/>
<path d="M66.8528 47.5506C68.6194 47.5506 70.0514 46.1218 70.0514 44.3593C70.0514 42.5968 68.6194 41.168 66.8528 41.168C65.0863 41.168 63.6543 42.5968 63.6543 44.3593C63.6543 46.1218 65.0863 47.5506 66.8528 47.5506Z" fill="#2CA58D"/>
<path d="M62.8068 281.376C64.4834 285.7 65.7046 290.438 65.9737 295.321L64.9388 295.383C64.7525 292.156 64.1522 288.99 63.2622 285.969L55.7692 281.749C59.0811 281.169 61.1095 281.997 62.3307 283.135C61.7511 281.5 61.0888 279.907 60.385 278.376L47.4276 272.293C53.4095 271.693 57.0732 273.824 59.1431 275.811C58.2945 274.135 57.4044 272.583 56.5143 271.114L40.0588 266.852C46.1649 265.279 51.2362 265.735 54.5273 268.052C54.4859 268.011 54.4652 267.969 54.4238 267.907C53.0991 265.962 51.7951 264.204 50.5738 262.673L33.9941 260.831C41.2593 257.521 46.4755 259.341 49.2284 261.017C47.5518 259.01 46.1857 257.541 45.4198 256.755C41.3422 254.231 29.0056 246.431 30.2476 245.376C31.6551 244.176 38.3615 242.665 45.5854 255.452C46.0822 255.928 48.3797 258.266 51.2568 261.886C49.1663 257.376 47.4483 250.962 50.3668 245.003L54.5273 266.273C54.755 266.604 55.0034 266.955 55.2311 267.286C55.9969 268.404 56.7834 269.624 57.5493 270.928C55.6243 266.024 54.4445 259.3 57.9426 253.817L59.8055 274.942C60.3023 275.893 60.7784 276.886 61.2544 277.9C60.3644 273.245 61.5028 269.335 64.7732 264.679L62.8068 281.376Z" fill="#D0EFFF"/>
<path d="M67.3699 268.009C69.1905 287.423 69.7974 298.799 69.8177 299.083L68.8062 299.144C68.786 298.84 68.0374 284.872 65.7312 261.429V261.409C65.448 259.486 65.2659 257.765 65.2053 256.186C64.8007 252.3 64.3556 248.19 63.8903 243.858C63.8701 243.676 63.8297 243.493 63.8094 243.311C56.9718 224.95 49.0014 223.796 49.0014 223.796C56.1425 224.161 60.1884 227.42 62.4339 231.367C62.1304 228.918 61.8269 226.388 61.5033 223.837C55.5558 207.399 44.3486 204.585 44.3486 204.585C52.663 203.046 57.3157 206.609 59.8849 211.427C59.6219 209.423 59.3387 207.419 59.0555 205.374C55.9401 201.569 47.5247 191.912 39.2912 187.641C39.2912 187.641 52.2786 187.742 57.8417 196.811C57.7203 195.961 57.599 195.091 57.4574 194.22C54.3825 188.046 46.9582 174.482 39.0282 170.373C39.0282 170.373 49.851 170.717 55.5355 181.446C55.2119 179.341 54.868 177.195 54.5241 175.049C50.2152 169.422 36.9243 152.72 29.2168 150.473C29.2168 150.473 45.623 148.024 53.0877 166.203C52.6629 163.632 52.2179 161.02 51.7728 158.409C48.2731 151.526 39.9992 137.254 31.7252 137.254C31.7252 137.254 43.2157 132.962 49.6892 146.465C49.1835 143.692 48.6777 140.898 48.1517 138.084C41.8603 136.627 42.7909 100.815 44.2272 100.734C44.2272 100.734 52.4606 135.351 49.1632 137.963C50.0331 142.599 50.8625 147.194 51.6514 151.728C51.6716 151.789 51.6919 151.83 51.6919 151.89C49.2644 126.748 63.8702 127.092 63.8702 127.092C54.4836 137.882 53.634 163.348 53.634 163.348C53.6137 163.308 53.6137 163.247 53.5935 163.207C54.1801 166.689 54.7465 170.13 55.2927 173.531C55.313 173.652 55.3535 173.774 55.3737 173.916C52.6023 144.076 72.1643 145.149 72.1643 145.149C62.0091 153.712 56.8909 176.142 56.2031 179.3C56.5065 181.264 56.81 183.208 57.1134 185.151C57.3359 185.778 57.5181 186.426 57.7001 187.115C57.3562 163.531 75.3201 164.219 75.3201 164.219C63.4048 172.478 59.4399 196.123 59.0757 198.451C59.1364 198.937 59.2173 199.423 59.278 199.888C59.3589 200.131 59.4399 200.374 59.5208 200.617C60.33 182.884 77.2824 180.718 77.2824 180.718C60.8762 189.928 61.1998 213.168 61.1998 213.168C61.1391 212.925 61.0785 212.703 60.9975 212.48C61.1189 213.31 61.2201 214.12 61.3212 214.93C61.6247 215.841 61.8674 216.772 62.0697 217.683C62.5754 199.16 73.0948 201.629 73.0948 201.629C67.9969 206.812 65.6503 218.33 64.5984 226.448C67.7744 218.33 75.0774 219.525 75.0774 219.525C69.0894 224.829 66.9248 239.121 66.1561 247.279C68.705 239.971 75.0774 241.004 75.0774 241.004C68.9478 246.469 67.6328 263.373 67.3699 268.009Z" fill="#D0EFFF"/>
<path d="M89.4486 240.757C89.2275 241.706 88.9863 242.655 88.7652 243.583C94.3326 232.943 103.658 233.327 103.658 233.327C93.4683 240.292 88.323 249.822 85.7303 256.787C85.469 257.958 85.2078 259.109 84.9666 260.22C84.8058 260.967 84.6451 261.694 84.4843 262.42C89.8908 249.903 100.242 250.327 100.242 250.327C89.1873 257.878 84.0621 268.457 81.7106 275.524C81.7106 275.524 81.7106 275.524 81.7106 275.544C79.4395 286.547 77.9522 294.32 77.9321 294.441L76.9473 294.26C76.9674 294.199 77.4497 291.574 78.314 287.234C77.9723 283.297 76.9272 274.231 74.4551 271.001C74.4551 271.001 78.8366 272.031 79.7812 278.067C79.5802 271.385 78.7159 259.331 75.0178 254.345C75.0178 254.345 81.9318 257.434 81.8916 269.749C82.193 268.336 82.4944 266.903 82.816 265.429C82.8964 259.029 82.6754 240.272 77.5704 233.105C77.5704 233.105 86.3334 237.224 85.5093 253.173C85.7304 252.225 85.9313 251.276 86.1524 250.307C86.2529 245.441 86.3936 224.504 80.9268 216.832C80.9268 216.832 90.7752 221.455 88.6246 239.848C89.1472 237.668 89.6898 235.507 90.2325 233.367C89.6094 227.593 87.5995 209.362 86.8357 207.484C85.8308 205.021 92.6443 214.227 91.4785 228.542C92.3428 225.251 93.2271 222.081 94.0914 219.113C93.5487 214.147 92.0213 200.357 91.4384 198.903C90.6345 196.945 96.0611 204.274 95.1365 215.701C95.9003 213.238 96.664 210.977 97.3875 208.958C98.3523 201.71 101.126 184.508 105.467 185.396C108.301 185.982 101.769 201.467 98.6136 208.574C97.6287 211.219 96.6038 214.349 95.5586 217.781C97.9504 212.632 102.171 207.282 109.326 207.403C109.326 207.403 100.905 210.089 93.2272 225.978C92.6845 227.977 92.1418 230.056 91.5992 232.156C94.5336 225.413 99.8999 218.023 109.326 218.185C109.326 218.164 99.0155 221.455 89.4486 240.757Z" fill="#D0EFFF"/>
<path d="M83.1864 314.19H58.1843C53.6439 314.19 49.9512 310.536 49.9512 306.042V300.71C49.9512 296.217 53.6439 292.562 58.1843 292.562H83.1864C87.7267 292.562 91.4195 296.217 91.4195 300.71V306.022C91.4195 310.536 87.7267 314.19 83.1864 314.19Z" fill="#2CA58D"/>
</svg>
