<svg width="16" height="16" viewBox="0 0 16 16" fill="none" xmlns="http://www.w3.org/2000/svg">
<path d="M16 0H0V16H16V0Z" fill="white" fill-opacity="0.01"/>
<path d="M8.00065 14.6654C9.84158 14.6654 11.5083 13.9192 12.7147 12.7127C13.9211 11.5063 14.6673 9.83963 14.6673 7.9987C14.6673 6.15776 13.9211 4.4911 12.7147 3.28465C11.5083 2.07822 9.84158 1.33203 8.00065 1.33203C6.15972 1.33203 4.49305 2.07822 3.2866 3.28465C2.08018 4.4911 1.33398 6.15776 1.33398 7.9987C1.33398 9.83963 2.08018 11.5063 3.2866 12.7127C4.49305 13.9192 6.15972 14.6654 8.00065 14.6654Z" stroke="#67809A" stroke-width="1.33333" stroke-linejoin="round"/>
<path d="M8 9.54036V8.20703C9.10457 8.20703 10 7.3116 10 6.20703C10 5.10246 9.10457 4.20703 8 4.20703C6.89543 4.20703 6 5.10246 6 6.20703" stroke="#67809A" stroke-width="1.33333" stroke-linecap="round" stroke-linejoin="round"/>
<path fill-rule="evenodd" clip-rule="evenodd" d="M7.99935 12.5417C8.45958 12.5417 8.83268 12.1686 8.83268 11.7083C8.83268 11.2481 8.45958 10.875 7.99935 10.875C7.53912 10.875 7.16602 11.2481 7.16602 11.7083C7.16602 12.1686 7.53912 12.5417 7.99935 12.5417Z" fill="#67809A"/>
</svg>
