<svg width="16" height="16" viewBox="0 0 16 16" fill="none" xmlns="http://www.w3.org/2000/svg">
<path d="M16 0H0V16H16V0Z" fill="white" fill-opacity="0.01"/>
<path d="M7.99935 6.66667C9.28802 6.66667 10.3327 5.622 10.3327 4.33333C10.3327 3.04467 9.28802 2 7.99935 2C6.71068 2 5.66602 3.04467 5.66602 4.33333C5.66602 5.622 6.71068 6.66667 7.99935 6.66667Z" stroke="#67809A" stroke-width="1.33333" stroke-linecap="round" stroke-linejoin="round"/>
<path d="M4 2.41821C3.3955 2.83986 3 3.54039 3 4.33332C3 5.18209 3.4532 5.92502 4.1308 6.33332" stroke="#67809A" stroke-width="1.33333" stroke-linecap="round" stroke-linejoin="round"/>
<path d="M12 2.41821C12.6045 2.83986 13 3.54039 13 4.33332C13 5.12622 12.6045 5.82679 12 6.24842" stroke="#67809A" stroke-width="1.33333" stroke-linecap="round" stroke-linejoin="round"/>
<path d="M4 13.3334V14H12V13.3334C12 12.0909 12 11.4696 11.797 10.9795C11.5264 10.3261 11.0072 9.80701 10.3538 9.53637C9.86377 9.33337 9.2425 9.33337 8 9.33337C6.7575 9.33337 6.13623 9.33337 5.64617 9.53637C4.99277 9.80701 4.47363 10.3261 4.203 10.9795C4 11.4696 4 12.0909 4 13.3334Z" stroke="#67809A" stroke-width="1.33333" stroke-linecap="round" stroke-linejoin="round"/>
<path d="M14.667 14.0001V13.6001C14.667 12.1066 14.667 11.3599 14.3763 10.7894C14.1207 10.2877 13.7127 9.87969 13.2109 9.62402" stroke="#67809A" stroke-width="1.33333" stroke-linecap="round" stroke-linejoin="round"/>
<path d="M1.33398 14.0001V13.6001C1.33398 12.1066 1.33398 11.3599 1.62463 10.7894C1.88029 10.2877 2.28824 9.87969 2.79001 9.62402" stroke="#67809A" stroke-width="1.33333" stroke-linecap="round" stroke-linejoin="round"/>
</svg>
