<svg width="16" height="16" viewBox="0 0 16 16" fill="none" xmlns="http://www.w3.org/2000/svg">
<path d="M16 0H0V16H16V0Z" fill="white" fill-opacity="0.01"/>
<path d="M7.9707 3.77124C7.99804 3.02739 8.20704 2.37401 8.59274 1.82783C8.9804 1.27889 9.62124 0.888932 10.4985 0.667969C10.5043 0.694982 10.5104 0.722012 10.5167 0.748939V0.890272C10.5167 1.21075 10.439 1.57824 10.2855 1.98246C10.1247 2.37384 9.87344 2.7422 9.53967 3.07464C9.22747 3.36757 8.9387 3.5615 8.68347 3.64917C8.59917 3.67434 8.48367 3.6991 8.34414 3.7214C8.22004 3.74074 8.09554 3.75734 7.9707 3.77124Z" fill="#012C57"/>
<path d="M8.11609 4.87633C7.12519 4.87633 6.43722 4 5.45979 4C4.48239 4 2.46875 4.8984 2.46875 8C2.46875 11.1016 4.25689 13.1 4.45685 13.3333C4.65685 13.5667 5.11939 14.1665 5.83595 14.1665C6.55255 14.1665 7.33705 13.5967 8.11609 13.5967C8.89509 13.5967 9.87562 14.1665 10.5158 14.1665C11.1559 14.1665 11.4192 13.9055 11.8549 13.4554C12.2905 13.0053 13.1215 11.6318 13.4117 10.8074C12.9337 10.5228 11.6667 9.75037 11.6667 8C11.6667 6.83307 12.0932 5.86367 12.9461 5.09173C12.3865 4.3639 11.7376 4 10.9992 4C9.89165 4 9.10695 4.87633 8.11609 4.87633Z" stroke="#012C57" stroke-width="1.33333" stroke-linejoin="round"/>
</svg>
