<svg width="34" height="40" viewBox="0 0 34 40" fill="none" xmlns="http://www.w3.org/2000/svg">
<path fill-rule="evenodd" clip-rule="evenodd" d="M23.3349 0.323069C20.7594 1.16103 19.1898 2.36552 18.0808 4.35489C17.2877 5.77757 16.7312 7.74004 16.7312 9.11452C16.7312 9.82642 16.6727 9.80902 18.1814 9.54402C19.4973 9.31293 20.5562 8.7853 21.6043 7.83868C23.1179 6.47145 24.1085 4.83859 24.61 2.88389C24.9224 1.66601 24.9196 0.0496745 24.6049 0.0012295C24.5001 -0.0149188 23.9286 0.129915 23.3349 0.323069ZM23.081 9.22418C22.4873 9.34961 21.4586 9.62513 20.795 9.83619C19.2071 10.3415 18.0594 10.6015 17.4074 10.6038C17.1159 10.6048 15.7489 10.3241 14.3699 9.9799C10.6107 9.04179 8.81851 8.96969 6.81707 9.67583C1.80787 11.443 -0.938782 17.8859 0.292563 24.9801C1.32897 30.9515 5.33313 37.7938 8.76606 39.4602C9.59331 39.8617 9.91384 39.9479 10.7345 39.9893C11.802 40.0431 12.3506 39.9168 14.6075 39.098C17.0615 38.2076 18.3203 38.2281 21.43 39.2096C22.373 39.5072 23.5027 39.8148 23.9405 39.8929C26.7369 40.3922 29.3483 38.3246 32.2849 33.2862C32.9001 32.2305 34.0004 29.7267 34 29.3828C34 29.2755 33.6715 29.0444 33.2341 28.8438C31.781 28.1772 29.9659 26.1598 29.2442 24.4092C28.5611 22.752 28.3767 20.7719 28.7428 19.0246C29.1393 17.1326 30.0949 15.5673 31.8439 13.9455L32.8784 12.9862L32.6182 12.626C32.2458 12.1106 30.8971 10.904 30.1402 10.4093C28.1897 9.13405 25.5796 8.69592 23.081 9.22418Z" fill="#012C57"/>
</svg>
