<svg width="16" height="16" viewBox="0 0 16 16" fill="none" xmlns="http://www.w3.org/2000/svg">
<path d="M16 0H0V16H16V0Z" fill="white" fill-opacity="0.01"/>
<path d="M8.00016 14.6668C9.8411 14.6668 11.5078 13.9206 12.7142 12.7142C13.9206 11.5078 14.6668 9.8411 14.6668 8.00016C14.6668 6.15923 13.9206 4.49256 12.7142 3.28612C11.5078 2.07969 9.8411 1.3335 8.00016 1.3335C6.15923 1.3335 4.49256 2.07969 3.28612 3.28612C2.07969 4.49256 1.3335 6.15923 1.3335 8.00016C1.3335 9.8411 2.07969 11.5078 3.28612 12.7142C4.49256 13.9206 6.15923 14.6668 8.00016 14.6668Z" stroke="#2CA58D" stroke-width="1.33333" stroke-linejoin="round"/>
<path fill-rule="evenodd" clip-rule="evenodd" d="M7.99984 3.6665C8.46007 3.6665 8.83317 4.0396 8.83317 4.49984C8.83317 4.96007 8.46007 5.33317 7.99984 5.33317C7.5396 5.33317 7.1665 4.96007 7.1665 4.49984C7.1665 4.0396 7.5396 3.6665 7.99984 3.6665Z" fill="#2CA58D"/>
<path d="M8.16667 11.3332V6.6665H7.83333H7.5" stroke="#2CA58D" stroke-width="1.33333" stroke-linecap="round" stroke-linejoin="round"/>
<path d="M7 11.3335H9.33333" stroke="#2CA58D" stroke-width="1.33333" stroke-linecap="round" stroke-linejoin="round"/>
</svg>
