<svg width="59" height="54" viewBox="0 0 59 54" fill="none" xmlns="http://www.w3.org/2000/svg">
<path d="M54 40.2778C54 36.9194 51.6807 34.1167 48.6 33.4722V30.5556V8.33333C48.6 3.73056 44.9739 0 40.5 0H8.1C3.6261 0 0 3.73056 0 8.33333V41.6667C0 46.2694 3.6261 50 8.1 50H48.6V47.0833C51.6807 46.4389 54 43.6361 54 40.2778Z" fill="#F0F2F5"/>
<path d="M35.4 28H14.6C13.1648 28 12 26.656 12 25C12 23.344 13.1648 22 14.6 22H35.4C36.8352 22 38 23.344 38 25C38 26.656 36.8352 28 35.4 28Z" fill="#E1E6EB"/>
<path d="M30.375 38H14.625C13.176 38 12 36.656 12 35C12 33.344 13.176 32 14.625 32H30.375C31.824 32 33 33.344 33 35C33 36.656 31.824 38 30.375 38Z" fill="#E1E6EB"/>
<path d="M34.1 10C33.0964 10 16.9036 10 15.9 10C13.7472 10 12 11.792 12 14C12 16.208 13.7472 18 15.9 18C16.9036 18 33.0964 18 34.1 18C36.2528 18 38 16.208 38 14C38 11.792 36.2528 10 34.1 10Z" fill="#E1E6EB"/>
<path fill-rule="evenodd" clip-rule="evenodd" d="M58.4667 44.7756L52.7819 39C53.081 40.7278 52.5101 42.7561 51.0761 44.213C49.4729 45.8419 47.1637 46.3837 45.3537 45.8071C45.0375 46.4219 44.5692 46.9793 44 47.4429L49.9207 53.4582C50.9189 54.4723 52.6264 53.9931 52.9699 52.6004L53.5134 50.3898C53.751 49.4225 54.4945 48.6672 55.4466 48.4258L57.6224 47.8736C58.9932 47.5245 59.4649 45.7898 58.4667 44.7756Z" fill="#012C57"/>
<path fill-rule="evenodd" clip-rule="evenodd" d="M23.5333 44.7756L29.2181 39C28.919 40.7278 29.4899 42.7561 30.9239 44.213C32.5271 45.8419 34.8363 46.3837 36.6463 45.8071C36.9625 46.4219 37.4308 46.9793 38 47.4429L32.0793 53.4582C31.0811 54.4723 29.3736 53.9931 29.0301 52.6004L28.4866 50.3898C28.249 49.4225 27.5055 48.6672 26.5534 48.4258L24.3776 47.8736C23.0068 47.5245 22.5351 45.7898 23.5333 44.7756Z" fill="#012C57"/>
<path fill-rule="evenodd" clip-rule="evenodd" d="M35.6382 21.0542C36.552 19.3067 38.6427 18 41 18C43.3573 18 45.448 19.3067 46.3618 21.0542C48.2427 20.464 50.6462 21.0187 52.3138 22.6862C53.9813 24.3538 54.536 26.7556 53.9458 28.6382C55.6933 29.552 57 31.6427 57 34C57 36.3573 55.6933 38.448 53.9458 39.3618C54.536 41.2427 53.9813 43.6462 52.3138 45.3138C50.6462 46.9813 48.2444 47.536 46.3618 46.9458C45.448 48.6933 43.3573 50 41 50C38.6427 50 36.552 48.6933 35.6382 46.9458C33.7573 47.536 31.3538 46.9813 29.6862 45.3138C28.0187 43.6462 27.464 41.2444 28.0542 39.3618C26.3067 38.448 25 36.3573 25 34C25 31.6427 26.3067 29.552 28.0542 28.6382C27.464 26.7573 28.0187 24.3538 29.6862 22.6862C31.3538 21.0187 33.7556 20.464 35.6382 21.0542Z" fill="#2CA58D"/>
<rect x="33" y="30" width="16" height="6" rx="3" fill="#012C57"/>
<rect x="33" y="39" width="16" height="3" rx="1.5" fill="#012C57"/>
</svg>
