<svg width="20" height="20" viewBox="0 0 20 20" fill="none" xmlns="http://www.w3.org/2000/svg">
<path d="M20 0H0V20H20V0Z" fill="white" fill-opacity="0.01"/>
<path d="M13.3327 4.9974C13.3327 3.15645 11.8403 1.66406 9.99935 1.66406C8.1584 1.66406 6.66602 3.15645 6.66602 4.9974V9.9974C6.66602 11.8383 8.1584 13.3307 9.99935 13.3307C11.8403 13.3307 13.3327 11.8383 13.3327 9.9974V4.9974Z" stroke="#012C57" stroke-width="1.66667" stroke-linecap="round" stroke-linejoin="round"/>
<path d="M4.16602 8.75V10C4.16602 13.2217 6.77768 15.8333 9.99935 15.8333C13.221 15.8333 15.8327 13.2217 15.8327 10V8.75" stroke="#012C57" stroke-width="1.66667" stroke-linecap="round" stroke-linejoin="round"/>
<path d="M10.8333 16C10.8333 15.5398 10.4602 15.1667 10 15.1667C9.53976 15.1667 9.16667 15.5398 9.16667 16L10.8333 16ZM9.16667 18C9.16667 18.4602 9.53976 18.8333 10 18.8333C10.4602 18.8333 10.8333 18.4602 10.8333 18L9.16667 18ZM9.16667 16L9.16667 18L10.8333 18L10.8333 16L9.16667 16Z" fill="#012C57"/>
</svg>
