<svg width="152" height="24" viewBox="0 0 152 24" fill="none" xmlns="http://www.w3.org/2000/svg">
<path d="M24 0H0V24H24V0Z" fill="white" fill-opacity="0.01"/>
<path d="M11.9993 2.5L8.9428 8.7388L2 9.74555L7.02945 14.6625L5.8272 21.5L11.9993 18.2096L18.1727 21.5L16.9793 14.6625L22 9.74555L15.0957 8.7388L11.9993 2.5Z" stroke="#67809A" stroke-width="2" stroke-linejoin="round"/>
<path d="M56 0H32V24H56V0Z" fill="white" fill-opacity="0.01"/>
<path d="M43.9993 2.5L40.9428 8.7388L34 9.74555L39.0295 14.6625L37.8272 21.5L43.9993 18.2096L50.1727 21.5L48.9793 14.6625L54 9.74555L47.0957 8.7388L43.9993 2.5Z" stroke="#67809A" stroke-width="2" stroke-linejoin="round"/>
<path d="M88 0H64V24H88V0Z" fill="white" fill-opacity="0.01"/>
<path d="M75.9993 2.5L72.9428 8.7388L66 9.74555L71.0295 14.6625L69.8272 21.5L75.9993 18.2096L82.1727 21.5L80.9793 14.6625L86 9.74555L79.0957 8.7388L75.9993 2.5Z" stroke="#67809A" stroke-width="2" stroke-linejoin="round"/>
<path d="M120 0H96V24H120V0Z" fill="white" fill-opacity="0.01"/>
<path d="M107.999 2.5L104.943 8.7388L98 9.74555L103.029 14.6625L101.827 21.5L107.999 18.2096L114.173 21.5L112.979 14.6625L118 9.74555L111.096 8.7388L107.999 2.5Z" stroke="#67809A" stroke-width="2" stroke-linejoin="round"/>
<path d="M152 0H128V24H152V0Z" fill="white" fill-opacity="0.01"/>
<path d="M139.999 2.5L136.943 8.7388L130 9.74555L135.029 14.6625L133.827 21.5L139.999 18.2096L146.173 21.5L144.979 14.6625L150 9.74555L143.096 8.7388L139.999 2.5Z" stroke="#67809A" stroke-width="2" stroke-linejoin="round"/>
</svg>
