<svg width="118" height="125" viewBox="0 0 118 125" fill="none" xmlns="http://www.w3.org/2000/svg">
<circle cx="60.31" cy="57.6889" r="57.6889" fill="#D0EFFF"/>
<path d="M104 21H0V125H104V21Z" fill="white" fill-opacity="0.01"/>
<path d="M52.0026 64.3333C60.3789 64.3333 67.1693 57.543 67.1693 49.1667C67.1693 40.7904 60.3789 34 52.0026 34C43.6263 34 36.8359 40.7904 36.8359 49.1667C36.8359 57.543 43.6263 64.3333 52.0026 64.3333Z" fill="#FF865E" stroke="#FF865E" stroke-width="8.83333" stroke-linecap="round" stroke-linejoin="round"/>
<path d="M13 109.401V112.001H91V109.401C91 99.6938 91 94.84 89.1109 91.1322C87.4491 87.8707 84.7973 85.2189 81.5358 83.5571C77.828 81.668 72.9742 81.668 63.2667 81.668H40.7333C31.0258 81.668 26.172 81.668 22.4642 83.5571C19.2027 85.2189 16.551 87.8707 14.8892 91.1322C13 94.84 13 99.6938 13 109.401Z" fill="#012C57" stroke="#012C57" stroke-width="8.83333" stroke-linecap="round" stroke-linejoin="round"/>
</svg>
