<svg width="32" height="32" viewBox="0 0 32 32" fill="none" xmlns="http://www.w3.org/2000/svg">
<path d="M26.6673 10.9321V4.00033C26.6673 3.26395 26.0704 2.66699 25.334 2.66699H6.66732C5.93094 2.66699 5.33398 3.26395 5.33398 4.00033V28.0003C5.33398 28.7367 5.93094 29.3337 6.66732 29.3337H13.334" stroke="#67809A" stroke-width="2.66667" stroke-linecap="round" stroke-linejoin="round"/>
<path d="M10.666 9.33301H19.3327" stroke="#67809A" stroke-width="2.66667" stroke-linecap="round"/>
<path d="M10.666 14H13.9993" stroke="#67809A" stroke-width="2.66667" stroke-linecap="round"/>
<path d="M16.0007 22.6667C16.0007 26.3486 18.9854 29.3333 22.6673 29.3333C26.3492 29.3333 29.334 26.3486 29.334 22.6667C29.334 18.9848 26.3492 16 22.6673 16C18.9854 16 16.0007 18.9848 16.0007 22.6667Z" fill="#FF865E" stroke="#FF865E" stroke-width="2.66667" stroke-linecap="round" stroke-linejoin="round"/>
<path d="M22.666 24V26" stroke="white" stroke-width="2.66667" stroke-linecap="round"/>
<path d="M22.6673 21.3337C23.4037 21.3337 24.0007 20.7367 24.0007 20.0003C24.0007 19.2639 23.4037 18.667 22.6673 18.667C21.9309 18.667 21.334 19.2639 21.334 20.0003C21.334 20.7367 21.9309 21.3337 22.6673 21.3337Z" fill="white"/>
</svg>
