<svg width="16" height="16" viewBox="0 0 16 16" fill="none" xmlns="http://www.w3.org/2000/svg">
<path d="M16 0H0V16H16V0Z" fill="white" fill-opacity="0.01"/>
<path fill-rule="evenodd" clip-rule="evenodd" d="M8.00065 14.6654C11.6826 14.6654 14.6673 11.6806 14.6673 7.9987C14.6673 4.3168 11.6826 1.33203 8.00065 1.33203C4.31875 1.33203 1.33398 4.3168 1.33398 7.9987C1.33398 11.6806 4.31875 14.6654 8.00065 14.6654Z" stroke="#67809A" stroke-width="1.33333" stroke-linecap="round" stroke-linejoin="round"/>
<path d="M8.00065 7.66536C8.92112 7.66536 9.66732 6.91916 9.66732 5.9987C9.66732 5.07823 8.92112 4.33203 8.00065 4.33203C7.08018 4.33203 6.33398 5.07823 6.33398 5.9987C6.33398 6.91916 7.08018 7.66536 8.00065 7.66536Z" stroke="#67809A" stroke-width="1.33333" stroke-linejoin="round"/>
<path d="M3.33984 12.7786C3.45441 11.0415 4.89971 9.66797 6.66584 9.66797H9.33251C11.0963 9.66797 12.5401 11.0379 12.6581 12.7717" stroke="#67809A" stroke-width="1.33333" stroke-linecap="round" stroke-linejoin="round"/>
</svg>
