<svg width="16" height="16" viewBox="0 0 16 16" fill="none" xmlns="http://www.w3.org/2000/svg">
<path d="M16 0H0V16H16V0Z" fill="white" fill-opacity="0.01"/>
<path d="M14.0557 9.74845L9.75372 14.0504C9.52865 14.2758 9.22322 14.4024 8.90472 14.4024C8.58622 14.4024 8.28082 14.2758 8.05572 14.0504L2.66602 8.66675V2.66675H8.66602L14.0557 8.05645C14.521 8.52448 14.521 9.28041 14.0557 9.74845Z" stroke="#012C57" stroke-width="1.33333" stroke-linejoin="round"/>
<path fill-rule="evenodd" clip-rule="evenodd" d="M6.16732 6.99992C6.62755 6.99992 7.00065 6.62682 7.00065 6.16659C7.00065 5.70635 6.62755 5.33325 6.16732 5.33325C5.70708 5.33325 5.33398 5.70635 5.33398 6.16659C5.33398 6.62682 5.70708 6.99992 6.16732 6.99992Z" fill="#012C57"/>
</svg>
