<svg width="16" height="16" viewBox="0 0 16 16" fill="none" xmlns="http://www.w3.org/2000/svg">
<path d="M16 0H0V16H16V0Z" fill="white" fill-opacity="0.01"/>
<path d="M14.0564 9.7482L9.75445 14.0502C9.52938 14.2755 9.22395 14.4021 8.90545 14.4021C8.58695 14.4021 8.28155 14.2755 8.05645 14.0502L2.66675 8.6665V2.6665H8.66675L14.0564 8.0562C14.5217 8.52424 14.5217 9.28017 14.0564 9.7482Z" stroke="#67809A" stroke-width="1.33333" stroke-linejoin="round"/>
<path fill-rule="evenodd" clip-rule="evenodd" d="M6.16659 7.00016C6.62682 7.00016 6.99992 6.62706 6.99992 6.16683C6.99992 5.7066 6.62682 5.3335 6.16659 5.3335C5.70635 5.3335 5.33325 5.7066 5.33325 6.16683C5.33325 6.62706 5.70635 7.00016 6.16659 7.00016Z" fill="#67809A"/>
</svg>
