<svg width="16" height="16" viewBox="0 0 16 16" fill="none" xmlns="http://www.w3.org/2000/svg">
<path d="M16 0H0V16H16V0Z" fill="white" fill-opacity="0.01"/>
<path d="M13.3346 6.66634C13.3346 8.93557 11.9174 10.8738 9.9198 11.6442H8.0013H6.0828C4.08517 10.8738 2.66797 8.93557 2.66797 6.66634C2.66797 3.72081 5.05577 1.33301 8.0013 1.33301C10.9468 1.33301 13.3346 3.72081 13.3346 6.66634Z" stroke="#012C57" stroke-width="1.33333" stroke-linecap="round" stroke-linejoin="round"/>
<path d="M9.91906 11.6445L9.6927 14.361C9.6783 14.5338 9.53386 14.6667 9.3605 14.6667H6.6406C6.46723 14.6667 6.32283 14.5338 6.30843 14.361L6.08203 11.6445" stroke="#012C57" stroke-width="1.33333" stroke-linecap="round" stroke-linejoin="round"/>
<path d="M6 5.66699V7.66699L8 6.66699L10 7.66699V5.66699" stroke="#012C57" stroke-width="1.33333" stroke-linecap="round" stroke-linejoin="round"/>
</svg>
