<svg width="17" height="16" viewBox="0 0 17 16" fill="none" xmlns="http://www.w3.org/2000/svg">
<g clip-path="url(#clip0_3633_164106)">
<path d="M16.5 0H0.5V16H16.5V0Z" fill="white" fill-opacity="0.01"/>
<path d="M4.39273 6.75699C2.92508 7.10602 1.8335 8.42552 1.8335 9.99999C1.8335 11.8409 3.32588 13.3333 5.16683 13.3333C5.48263 13.3333 5.78816 13.2894 6.07766 13.2074" stroke="#012C57" stroke-width="1.33333" stroke-linecap="round" stroke-linejoin="round"/>
<path d="M12.5184 6.75699C13.9861 7.10602 15.0777 8.42552 15.0777 9.99999C15.0777 11.8409 13.5853 13.3333 11.7443 13.3333C11.4285 13.3333 11.123 13.2894 10.8335 13.2074" stroke="#012C57" stroke-width="1.33333" stroke-linecap="round" stroke-linejoin="round"/>
<path d="M12.5 6.66666C12.5 4.45752 10.7091 2.66666 8.5 2.66666C6.29087 2.66666 4.5 4.45752 4.5 6.66666" stroke="#012C57" stroke-width="1.33333" stroke-linecap="round" stroke-linejoin="round"/>
<path d="M6.18848 9.29368L8.49998 6.97455L10.8773 9.33335" stroke="#012C57" stroke-width="1.33333" stroke-linecap="round" stroke-linejoin="round"/>
<path d="M8.5 12.6667V8.15393" stroke="#012C57" stroke-width="1.33333" stroke-linecap="round" stroke-linejoin="round"/>
</g>
<defs>
<clipPath id="clip0_3633_164106">
<rect width="16" height="16" fill="white" transform="translate(0.5)"/>
</clipPath>
</defs>
</svg>
