<svg width="16" height="16" viewBox="0 0 16 16" fill="none" xmlns="http://www.w3.org/2000/svg">
<path d="M16 0H0V16H16V0Z" fill="white" fill-opacity="0.01"/>
<path d="M1.66602 6.33337H14.3327V13.3334C14.3327 13.7016 14.0342 14 13.666 14H2.33268C1.96449 14 1.66602 13.7016 1.66602 13.3334V6.33337Z" stroke="#012C57" stroke-width="1.33333" stroke-linejoin="round"/>
<path d="M1.66602 3.00004C1.66602 2.63185 1.96449 2.33337 2.33268 2.33337H13.666C14.0342 2.33337 14.3327 2.63185 14.3327 3.00004V6.33337H1.66602V3.00004Z" stroke="#012C57" stroke-width="1.33333" stroke-linejoin="round"/>
<path d="M5.33398 1.33337V4.00004" stroke="#012C57" stroke-width="1.33333" stroke-linecap="round" stroke-linejoin="round"/>
<path d="M10.666 1.33337V4.00004" stroke="#012C57" stroke-width="1.33333" stroke-linecap="round" stroke-linejoin="round"/>
<path d="M9.33398 11.3334H11.334" stroke="#012C57" stroke-width="1.33333" stroke-linecap="round" stroke-linejoin="round"/>
<path d="M4.66602 11.3334H6.66602" stroke="#012C57" stroke-width="1.33333" stroke-linecap="round" stroke-linejoin="round"/>
<path d="M9.33398 8.66663H11.334" stroke="#012C57" stroke-width="1.33333" stroke-linecap="round" stroke-linejoin="round"/>
<path d="M4.66602 8.66663H6.66602" stroke="#012C57" stroke-width="1.33333" stroke-linecap="round" stroke-linejoin="round"/>
</svg>
