<svg width="20" height="20" viewBox="0 0 20 20" fill="none" xmlns="http://www.w3.org/2000/svg">
<path d="M20 0H0V20H20V0Z" fill="white" fill-opacity="0.01"/>
<path d="M2.08398 7.91663H17.9173V16.6666C17.9173 17.1269 17.5442 17.5 17.084 17.5H2.91732C2.45708 17.5 2.08398 17.1269 2.08398 16.6666V7.91663Z" stroke="#2CA58D" stroke-width="1.66667" stroke-linejoin="round"/>
<path d="M2.08398 3.74996C2.08398 3.28972 2.45708 2.91663 2.91732 2.91663H17.084C17.5442 2.91663 17.9173 3.28972 17.9173 3.74996V7.91663H2.08398V3.74996Z" stroke="#2CA58D" stroke-width="1.66667" stroke-linejoin="round"/>
<path d="M6.66602 1.66663V4.99996" stroke="#2CA58D" stroke-width="1.66667" stroke-linecap="round" stroke-linejoin="round"/>
<path d="M13.334 1.66663V4.99996" stroke="#2CA58D" stroke-width="1.66667" stroke-linecap="round" stroke-linejoin="round"/>
<path d="M11.666 14.1666H14.166" stroke="#2CA58D" stroke-width="1.66667" stroke-linecap="round" stroke-linejoin="round"/>
<path d="M5.83398 14.1666H8.33398" stroke="#2CA58D" stroke-width="1.66667" stroke-linecap="round" stroke-linejoin="round"/>
<path d="M11.666 10.8334H14.166" stroke="#2CA58D" stroke-width="1.66667" stroke-linecap="round" stroke-linejoin="round"/>
<path d="M5.83398 10.8334H8.33398" stroke="#2CA58D" stroke-width="1.66667" stroke-linecap="round" stroke-linejoin="round"/>
</svg>
