<svg width="16" height="16" viewBox="0 0 16 16" fill="none" xmlns="http://www.w3.org/2000/svg">
<path d="M16 0H0V16H16V0Z" fill="white" fill-opacity="0.01"/>
<path d="M14.0557 9.74833L9.75372 14.0503C9.52865 14.2757 9.22322 14.4023 8.90472 14.4023C8.58622 14.4023 8.28082 14.2757 8.05572 14.0503L2.66602 8.66663V2.66663H8.66602L14.0557 8.05633C14.521 8.52436 14.521 9.28029 14.0557 9.74833Z" stroke="#67809A" stroke-width="1.33333" stroke-linejoin="round"/>
<path fill-rule="evenodd" clip-rule="evenodd" d="M6.16732 7.00004C6.62755 7.00004 7.00065 6.62694 7.00065 6.16671C7.00065 5.70647 6.62755 5.33337 6.16732 5.33337C5.70708 5.33337 5.33398 5.70647 5.33398 6.16671C5.33398 6.62694 5.70708 7.00004 6.16732 7.00004Z" fill="#67809A"/>
</svg>
