<svg width="16" height="16" viewBox="0 0 16 16" fill="none" xmlns="http://www.w3.org/2000/svg">
<path d="M2 3.08525L8.00287 1.33337L14 3.08525V6.67794C14 10.4541 11.5834 13.4732 8.00087 14.6669C4.41737 13.4732 2 10.4534 2 6.67627V3.08525Z" stroke="#012C57" stroke-width="1.33333" stroke-linejoin="round"/>
<path d="M8.00065 7.66671C8.92113 7.66671 9.66732 6.92052 9.66732 6.00004C9.66732 5.07957 8.92113 4.33337 8.00065 4.33337C7.08018 4.33337 6.33398 5.07957 6.33398 6.00004C6.33398 6.92052 7.08018 7.66671 8.00065 7.66671Z" stroke="#012C57" stroke-width="1.33333" stroke-linecap="round" stroke-linejoin="round"/>
<path d="M10.6673 10.3333C10.6673 8.86053 9.47342 7.66663 8.00065 7.66663C6.52788 7.66663 5.33398 8.86053 5.33398 10.3333" stroke="#012C57" stroke-width="1.33333" stroke-linecap="round" stroke-linejoin="round"/>
</svg>
