<svg width="200" height="64" viewBox="0 0 200 64" fill="none" xmlns="http://www.w3.org/2000/svg">
<rect x="0.5" y="0.5" width="199" height="63" rx="15.5" stroke="white"/>
<path fill-rule="evenodd" clip-rule="evenodd" d="M24.8908 21.0795L34.0859 30.3024L36.8436 27.5454L39.6015 24.7883L28.4835 18.474C22.3687 15.0013 16.9898 12.0916 16.5307 12.0081C15.8185 11.879 17.0496 13.2147 24.8908 21.0795ZM14 31.9998V50.3862L23.1951 41.193L32.3903 31.9998L23.1951 22.8066L14 13.6135V31.9998ZM38.7748 29.0083L35.7883 32.0027L38.7855 34.989L41.7826 37.9756L45.1739 36.0391C48.6101 34.0767 50 32.9182 50 32.0157C50 31.1204 48.7408 29.9939 46.0217 28.4569C44.551 27.6255 42.991 26.7358 42.5545 26.4797L41.7612 26.0139L38.7748 29.0083ZM24.8248 42.9846C17.0391 50.7957 15.8185 52.1211 16.5307 51.9918C16.9898 51.9083 22.3677 48.9989 28.4817 45.5267L39.5976 39.2134L36.9122 36.5195C35.4351 35.0378 34.1652 33.8255 34.0903 33.8255C34.0152 33.8255 29.8457 37.9472 24.8248 42.9846Z" fill="white"/>
<path d="M66.716 15.54C64.364 15.54 62.516 17.304 62.516 19.812C62.516 22.32 64.364 24.072 66.716 24.072C68.984 24.072 70.628 22.404 70.82 20.328V19.488H66.32V20.376H69.656C69.488 22.032 68.36 23.088 66.716 23.088C64.952 23.088 63.632 21.816 63.632 19.812C63.632 17.796 64.952 16.524 66.716 16.524C67.892 16.524 68.804 17.088 69.26 18.06H70.568C69.944 16.452 68.48 15.54 66.716 15.54ZM75.0598 18.24C76.1878 18.24 77.1478 18.948 77.1358 20.232H72.9838C73.1038 18.948 73.9918 18.24 75.0598 18.24ZM78.1318 21.972H76.9558C76.7158 22.68 76.0918 23.184 75.1078 23.184C73.9918 23.184 73.0558 22.452 72.9718 21.12H78.2278C78.2518 20.892 78.2638 20.7 78.2638 20.46C78.2638 18.66 77.0158 17.316 75.1078 17.316C73.1878 17.316 71.8558 18.624 71.8558 20.7C71.8558 22.788 73.2358 24.108 75.1078 24.108C76.7398 24.108 77.7958 23.172 78.1318 21.972ZM79.9453 22.2C79.9453 23.52 80.6053 24 81.7693 24H82.7533V23.076H81.9492C81.2773 23.076 81.0373 22.848 81.0373 22.2V18.324H82.7533V17.424H81.0373V15.768H79.9453V17.424H79.0933V18.324H79.9453V22.2ZM87.2756 24H88.3676V17.424H87.2756V24ZM87.8396 16.356C88.2356 16.356 88.5596 16.032 88.5596 15.612C88.5596 15.192 88.2356 14.868 87.8396 14.868C87.4196 14.868 87.0956 15.192 87.0956 15.612C87.0956 16.032 87.4196 16.356 87.8396 16.356ZM90.4687 22.2C90.4687 23.52 91.1287 24 92.2927 24H93.2767V23.076H92.4727C91.8007 23.076 91.5607 22.848 91.5607 22.2V18.324H93.2767V17.424H91.5607V15.768H90.4687V17.424H89.6167V18.324H90.4687V22.2ZM104.039 20.7C104.039 18.624 102.587 17.316 100.715 17.316C98.855 17.316 97.391 18.624 97.391 20.7C97.391 22.788 98.807 24.108 100.667 24.108C102.539 24.108 104.039 22.788 104.039 20.7ZM98.507 20.7C98.507 19.044 99.551 18.264 100.703 18.264C101.831 18.264 102.923 19.044 102.923 20.7C102.923 22.368 101.807 23.148 100.667 23.148C99.527 23.148 98.507 22.368 98.507 20.7ZM110.287 24H111.367V20.124C111.367 18.24 110.203 17.304 108.679 17.304C107.791 17.304 106.999 17.676 106.567 18.36V17.424H105.475V24H106.567V20.364C106.567 18.948 107.335 18.252 108.451 18.252C109.555 18.252 110.287 18.936 110.287 20.28V24Z" fill="white"/>
<path d="M69.82 32.86C65.78 32.86 62.7 35.82 62.7 40C62.7 44.18 65.78 47.12 69.84 47.12C73.56 47.12 76.1 44.52 76.66 41.68V39.24H69.1V41.38H73.9C73.48 43.36 72.1 44.6 69.94 44.6C67.34 44.6 65.58 42.84 65.58 40C65.58 37.22 67.32 35.44 69.82 35.44C71.3 35.44 72.46 36.06 73.1 37.24H76.32C75.42 34.44 72.94 32.86 69.82 32.86ZM89.4316 41.46C89.4316 37.96 86.9316 35.74 83.7316 35.74C80.5316 35.74 78.0316 37.96 78.0316 41.46C78.0316 44.94 80.4516 47.18 83.6516 47.18C86.8716 47.18 89.4316 44.94 89.4316 41.46ZM80.8716 41.46C80.8716 39.24 82.2116 38.18 83.6916 38.18C85.1716 38.18 86.5516 39.24 86.5516 41.46C86.5516 43.66 85.1316 44.74 83.6516 44.74C82.1516 44.74 80.8716 43.66 80.8716 41.46ZM102.185 41.46C102.185 37.96 99.6855 35.74 96.4855 35.74C93.2855 35.74 90.7855 37.96 90.7855 41.46C90.7855 44.94 93.2055 47.18 96.4055 47.18C99.6255 47.18 102.185 44.94 102.185 41.46ZM93.6255 41.46C93.6255 39.24 94.9655 38.18 96.4455 38.18C97.9255 38.18 99.3055 39.24 99.3055 41.46C99.3055 43.66 97.8855 44.74 96.4055 44.74C94.9055 44.74 93.6255 43.66 93.6255 41.46ZM103.519 41.42C103.519 44.88 105.759 47.18 108.579 47.18C110.319 47.18 111.579 46.32 112.239 45.36V47.08C112.239 49.14 111.039 50.02 109.499 50.02C108.099 50.02 107.059 49.36 106.779 48.36H103.999C104.279 50.9 106.459 52.46 109.579 52.46C113.219 52.46 115.059 50.08 115.059 47.08V35.92H112.239V37.5C111.579 36.54 110.319 35.74 108.579 35.74C105.759 35.74 103.519 37.96 103.519 41.42ZM112.239 41.46C112.239 43.56 110.839 44.72 109.299 44.72C107.799 44.72 106.379 43.52 106.379 41.42C106.379 39.32 107.799 38.2 109.299 38.2C110.839 38.2 112.239 39.36 112.239 41.46ZM117.794 47H120.594V32.2H117.794V47ZM128.12 38.04C129.56 38.04 130.72 38.96 130.76 40.42H125.5C125.72 38.9 126.78 38.04 128.12 38.04ZM133.38 43.52H130.36C130 44.26 129.34 44.86 128.14 44.86C126.74 44.86 125.62 43.94 125.48 42.3H133.58C133.64 41.94 133.66 41.58 133.66 41.22C133.66 37.92 131.4 35.74 128.2 35.74C124.92 35.74 122.64 37.96 122.64 41.46C122.64 44.94 124.98 47.18 128.2 47.18C130.94 47.18 132.78 45.56 133.38 43.52ZM143.27 37.52V35.92H140.47V52.28H143.27V45.42C143.95 46.32 145.19 47.18 146.93 47.18C149.77 47.18 151.99 44.88 151.99 41.42C151.99 37.96 149.77 35.74 146.93 35.74C145.21 35.74 143.93 36.58 143.27 37.52ZM149.13 41.42C149.13 43.52 147.71 44.72 146.19 44.72C144.69 44.72 143.27 43.56 143.27 41.46C143.27 39.36 144.69 38.2 146.19 38.2C147.71 38.2 149.13 39.32 149.13 41.42ZM154.025 47H156.825V32.2H154.025V47ZM158.871 41.42C158.871 44.88 161.111 47.18 163.911 47.18C165.671 47.18 166.931 46.34 167.591 45.38V47H170.411V35.92H167.591V37.5C166.931 36.58 165.711 35.74 163.931 35.74C161.111 35.74 158.871 37.96 158.871 41.42ZM167.591 41.46C167.591 43.56 166.191 44.72 164.651 44.72C163.151 44.72 161.731 43.52 161.731 41.42C161.731 39.32 163.151 38.2 164.651 38.2C166.191 38.2 167.591 39.36 167.591 41.46ZM177.866 43.66L175.006 35.92H171.866L176.306 46.72L173.906 52.24H176.886L183.746 35.92H180.766L177.866 43.66Z" fill="white"/>
</svg>
